<svg version="1.1" xmlns="http://www.w3.org/2000/svg" x="0px" y="0px"
     viewBox="0 45 940 460" xml:space="preserve">
<defs>
  <linearGradient id="iconGrad" x1="0%" y1="0%" x2="100%" y2="100%">
    <stop offset="0%" style="stop-color:#E2612C"/>
    <stop offset="50%" style="stop-color:#F06926"/>
    <stop offset="100%" style="stop-color:#FD8F22"/>
  </linearGradient>
</defs>
<path fill="none" opacity="1.000000" stroke="none" d="
M7.129524,547.156128 
	C50.457352,547.094055 93.785179,546.980164 137.113007,546.978271 
	C413.425140,546.965942 689.737244,546.978271 966.049377,546.980713 
	C967.383179,546.980713 968.716980,546.955383 970.847351,546.948364 
	C972.095947,546.969849 972.547974,546.984924 973.000000,547.000000 
	C973.000000,547.000000 973.000000,547.500000 972.666626,547.773682 
	C971.555542,548.364868 970.777771,548.682434 970.000000,549.000000 
	C966.638733,549.000000 963.277405,549.000000 959.240051,548.757812 
	C957.375977,548.677124 956.187988,548.838562 955.000000,549.000000 
	C954.555542,549.000000 954.111145,549.000000 953.019043,548.741211 
	C948.247559,548.654968 944.123779,548.827454 940.000000,549.000000 
	C939.250000,549.000000 938.500000,549.000000 937.126953,548.761414 
	C935.002563,548.681885 933.501282,548.840942 932.000000,549.000000 
	C930.933350,549.000000 929.866699,549.000000 928.253540,548.786865 
	C927.138000,548.715881 926.568970,548.857910 926.000000,549.000000 
	C795.645752,549.000000 665.291565,549.000000 534.411804,548.794373 
	C533.590881,548.725830 533.295471,548.862915 533.000000,549.000000 
	C506.312439,549.000000 479.624878,549.000000 452.319489,548.715454 
	C450.801117,548.620605 449.900543,548.810303 449.000000,549.000000 
	C448.250000,549.000000 447.500000,549.000000 446.119385,548.677063 
	C441.992493,548.569397 438.496246,548.784729 435.000000,549.000000 
	C434.555573,549.000000 434.111115,549.000000 433.074615,548.680664 
	C428.988373,548.574219 425.494171,548.787109 422.000000,549.000000 
	C421.555573,549.000000 421.111115,549.000000 420.158844,548.702026 
	C418.433990,548.602722 417.217010,548.801331 416.000000,549.000000 
	C415.555573,549.000000 415.111115,549.000000 414.101654,548.692322 
	C411.357758,548.589783 409.178864,548.794922 407.000000,549.000000 
	C406.555573,549.000000 406.111115,549.000000 405.063904,548.675049 
	C397.343658,548.221741 390.225922,547.998413 383.108856,548.018372 
	C380.738342,548.025024 378.369568,548.654968 376.000000,549.000000 
	C374.933350,549.000000 373.866669,549.000000 372.294067,548.732056 
	C371.192078,548.642761 370.596039,548.821350 370.000000,549.000000 
	C365.975464,549.000000 361.950897,549.000000 357.193298,548.675598 
	C355.814270,548.222656 355.168335,547.982300 354.522247,547.981812 
	C331.564972,547.965088 308.607635,547.955200 285.650513,548.017212 
	C284.432800,548.020447 283.216797,548.657837 282.000000,549.000000 
	C280.611115,549.000000 279.222198,549.000000 277.232727,548.711121 
	C275.421417,548.614868 274.210693,548.807434 273.000000,549.000000 
	C272.555573,549.000000 272.111115,549.000000 271.123840,548.709778 
	C269.054016,548.613037 267.527008,548.806519 266.000000,549.000000 
	C261.310730,549.000000 256.621490,549.000000 251.349091,548.743774 
	C250.177307,548.658325 249.588654,548.829163 249.000000,549.000000 
	C246.299988,549.000000 243.599976,549.000000 240.237656,548.713379 
	C238.050232,548.617859 236.525116,548.808899 235.000000,549.000000 
	C233.933334,549.000000 232.866684,549.000000 231.236130,548.728516 
	C229.781494,548.638062 228.890747,548.819031 228.000000,549.000000 
	C177.645767,549.000000 127.291542,549.000000 76.303696,548.733887 
	C74.780060,548.645203 73.890038,548.822632 73.000000,549.000000 
	C53.645771,549.000000 34.291542,549.000000 14.391613,548.829468 
	C13.563939,548.772644 13.281969,548.886292 13.000000,549.000000 
	C11.611111,549.000000 10.222222,549.000000 8.347314,548.752319 
	C7.617372,548.055115 7.373448,547.605652 7.129524,547.156128 
z"/>
<path fill="#8E8CA0" opacity="1.000000" stroke="none" d="
M973.000000,546.531372 
	C972.547974,546.984924 972.095947,546.969849 971.311340,546.890869 
	C970.996704,428.189209 970.959229,309.551483 971.074280,190.913956 
	C971.100708,163.656311 971.927063,136.398834 971.892517,109.141899 
	C971.847229,73.406700 971.313049,37.672119 970.994568,1.468645 
	C971.666687,1.332555 972.783691,1.546351 972.908997,2.021620 
	C973.196350,3.111570 973.000000,4.329073 973.000000,5.494808 
	C973.000000,185.684097 973.000000,365.873383 973.000000,546.531372 
z"/>
<path fill="none" opacity="1.000000" stroke="none" d="
M282.468658,549.000000 
	C283.216797,548.657837 284.432800,548.020447 285.650513,548.017212 
	C308.607635,547.955200 331.564972,547.965088 354.522247,547.981812 
	C355.168335,547.982300 355.814270,548.222656 356.730133,548.675598 
	C332.312439,549.000000 307.624878,549.000000 282.468658,549.000000 
z"/>
<path fill="#8E8CA0" opacity="1.000000" stroke="none" d="
M376.468658,549.000000 
	C378.369568,548.654968 380.738342,548.025024 383.108856,548.018372 
	C390.225922,547.998413 397.343658,548.221741 404.730591,548.675049 
	C395.645782,549.000000 386.291534,549.000000 376.468658,549.000000 
z"/>
<path fill="#8E8CA0" opacity="1.000000" stroke="none" d="
M940.463196,549.000000 
	C944.123779,548.827454 948.247559,548.654968 952.685669,548.741211 
	C948.975464,549.000000 944.950928,549.000000 940.463196,549.000000 
z"/>
<path fill="#8E8CA0" opacity="1.000000" stroke="none" d="
M435.458069,549.000000 
	C438.496246,548.784729 441.992493,548.569397 445.744385,548.677063 
	C442.638702,549.000000 439.277435,549.000000 435.458069,549.000000 
z"/>
<path fill="#8E8CA0" opacity="1.000000" stroke="none" d="
M422.458069,549.000000 
	C425.494171,548.787109 428.988373,548.574219 432.741272,548.680664 
	C429.638702,549.000000 426.277435,549.000000 422.458069,549.000000 
z"/>
<path fill="none" opacity="1.000000" stroke="none" d="
M6.739473,547.106262 
	C7.373448,547.605652 7.617372,548.055115 7.930647,548.752319 
	C5.666667,549.000000 3.333333,549.000000 1.000001,548.500000 
	C2.783142,547.685486 4.566281,547.370911 6.739473,547.106262 
z"/>
<path fill="#8E8CA0" opacity="1.000000" stroke="none" d="
M407.437500,549.000000 
	C409.178864,548.794922 411.357758,548.589783 413.768311,548.692322 
	C411.958344,549.000000 409.916656,549.000000 407.437500,549.000000 
z"/>
<path fill="#8E8CA0" opacity="1.000000" stroke="none" d="
M932.416626,549.000000 
	C933.501282,548.840942 935.002563,548.681885 936.751953,548.761414 
	C935.611084,549.000000 934.222229,549.000000 932.416626,549.000000 
z"/>
<path fill="none" opacity="1.000000" stroke="none" d="
M266.416656,549.000000 
	C267.527008,548.806519 269.054016,548.613037 270.790527,548.709778 
	C269.611115,549.000000 268.222198,549.000000 266.416656,549.000000 
z"/>
<path fill="none" opacity="1.000000" stroke="none" d="
M235.416656,549.000000 
	C236.525116,548.808899 238.050232,548.617859 239.787674,548.713379 
	C238.611115,549.000000 237.222214,549.000000 235.416656,549.000000 
z"/>
<path fill="#8E8CA0" opacity="1.000000" stroke="none" d="
M955.399963,549.000000 
	C956.187988,548.838562 957.375977,548.677124 958.781982,548.757812 
	C957.933289,549.000000 956.866638,549.000000 955.399963,549.000000 
z"/>
<path fill="#8E8CA0" opacity="1.000000" stroke="none" d="
M416.399994,549.000000 
	C417.217010,548.801331 418.433990,548.602722 419.825500,548.702026 
	C418.933319,549.000000 417.866669,549.000000 416.399994,549.000000 
z"/>
<path fill="none" opacity="1.000000" stroke="none" d="
M273.399994,549.000000 
	C274.210693,548.807434 275.421417,548.614868 276.816040,548.711121 
	C275.933319,549.000000 274.866669,549.000000 273.399994,549.000000 
z"/>
<path fill="#8E8CA0" opacity="1.000000" stroke="none" d="
M970.500000,549.000000 
	C970.777771,548.682434 971.555542,548.364868 972.666626,548.023682 
	C972.333313,548.333313 971.666687,548.666687 970.500000,549.000000 
z"/>
<path fill="#8E8CA0" opacity="1.000000" stroke="none" d="
M449.375000,549.000000 
	C449.900543,548.810303 450.801117,548.620605 451.850830,548.715454 
	C451.250000,549.000000 450.500000,549.000000 449.375000,549.000000 
z"/>
<path fill="none" opacity="1.000000" stroke="none" d="
M73.375000,549.000000 
	C73.890038,548.822632 74.780060,548.645203 75.835037,548.733887 
	C75.250000,549.000000 74.500000,549.000000 73.375000,549.000000 
z"/>
<path fill="none" opacity="1.000000" stroke="none" d="
M228.375000,549.000000 
	C228.890747,548.819031 229.781494,548.638062 230.836121,548.728516 
	C230.250000,549.000000 229.500000,549.000000 228.375000,549.000000 
z"/>
<path fill="none" opacity="1.000000" stroke="none" d="
M249.333328,549.000000 
	C249.588654,548.829163 250.177307,548.658325 250.882980,548.743774 
	C250.555557,549.000000 250.111099,549.000000 249.333328,549.000000 
z"/>
<path fill="#8E8CA0" opacity="1.000000" stroke="none" d="
M370.333313,549.000000 
	C370.596039,548.821350 371.192078,548.642761 371.894073,548.732056 
	C371.555542,549.000000 371.111115,549.000000 370.333313,549.000000 
z"/>
<path fill="#8E8CA0" opacity="1.000000" stroke="none" d="
M926.333313,549.000000 
	C926.568970,548.857910 927.138000,548.715881 927.853516,548.786865 
	C927.555542,549.000000 927.111084,549.000000 926.333313,549.000000 
z"/>
<path fill="none" opacity="1.000000" stroke="none" d="
M13.250000,549.000000 
	C13.281969,548.886292 13.563939,548.772644 13.922955,548.829468 
	C14.000000,549.000000 13.500000,549.000000 13.250000,549.000000 
z"/>
<path fill="#8E8CA0" opacity="1.000000" stroke="none" d="
M533.250000,549.000000 
	C533.295471,548.862915 533.590881,548.725830 533.943115,548.794373 
	C534.000000,549.000000 533.500000,549.000000 533.250000,549.000000 
z"/>
<path fill="#1B1035" opacity="1.000000" stroke="none" d="
M566.728271,377.002808 
	C566.728943,373.568298 566.729614,370.133759 566.717712,365.894440 
	C566.681702,361.371277 566.658264,357.652954 566.634766,353.934601 
	C566.801392,352.021301 566.968018,350.108002 567.160400,347.785156 
	C568.527771,347.302155 569.869385,347.228668 571.928711,347.142944 
	C573.096436,347.095367 573.546631,347.060028 573.996765,347.024658 
	C573.996765,347.024658 574.275513,347.411438 574.477966,347.629150 
	C574.680420,347.846893 574.964294,347.993011 574.940735,348.255493 
	C574.990356,348.677612 575.063599,348.837280 575.030579,349.455200 
	C575.083313,359.342834 574.997864,368.785034 575.491882,378.196808 
	C575.793335,383.938934 580.136719,388.198273 585.352905,389.005096 
	C591.233948,389.914764 597.567749,386.673798 600.407227,381.255066 
	C601.173767,377.302917 601.771912,373.588623 601.957092,369.853851 
	C602.330627,362.321411 602.479675,354.777893 602.944641,347.283752 
	C603.478088,347.290955 603.755798,347.175415 604.001038,346.982025 
	C604.760254,347.009735 605.519531,347.037476 606.640259,346.933167 
	C607.669739,346.892487 608.337646,346.983887 609.445068,347.543945 
	C609.939636,362.486633 610.059570,376.961182 609.953125,391.434113 
	C609.942078,392.945251 608.590881,394.446533 607.861450,395.952393 
	C606.535400,395.918427 605.209473,395.884491 603.401123,395.460388 
	C600.564880,390.005463 597.408081,392.351898 594.323792,394.147705 
	C588.502686,397.536957 582.278015,396.674286 576.654053,394.494812 
	C569.049866,391.547913 567.709961,384.176605 566.728271,377.002808 
z"/>
<path fill="#1B1035" opacity="1.000000" stroke="none" d="
M658.489014,349.912048 
	C658.517517,351.080627 658.546021,352.249237 658.346130,353.724121 
	C658.117737,354.030457 657.904358,353.948029 657.653320,353.745483 
	C655.007019,350.793549 653.444092,352.398834 651.623718,354.682922 
	C650.495667,354.823669 649.734619,354.858795 648.644409,354.765625 
	C647.992737,355.119415 647.670227,355.601562 647.261353,356.539856 
	C647.151550,364.759308 647.055725,372.523285 647.127258,380.285706 
	C647.185303,386.583710 648.075439,387.338196 654.838440,387.578674 
	C655.962830,387.795044 657.087158,388.011414 658.185181,388.222748 
	C659.300964,394.981567 659.290710,394.994202 652.766052,394.970306 
	C643.012756,394.934601 639.210266,391.445007 638.861328,381.570984 
	C638.598389,374.131989 638.920410,366.673340 638.728882,359.229919 
	C638.691895,357.791443 637.482788,356.383118 636.411560,354.439270 
	C636.671082,351.277954 637.333435,348.638245 637.995728,345.998505 
	C638.008606,343.624908 638.021545,341.251282 638.387085,338.398560 
	C639.162415,337.395660 639.585083,336.871948 640.007751,336.348236 
	C641.718689,336.308990 643.429565,336.269775 645.570679,336.187256 
	C646.080627,336.422760 646.252258,336.622620 646.387207,337.209045 
	C646.459290,339.103302 646.659912,340.532135 646.939575,342.338593 
	C647.067017,343.481903 647.115356,344.247528 647.066528,345.384949 
	C646.962402,346.012787 646.955444,346.268829 647.015991,346.756927 
	C647.707214,347.096130 648.330750,347.203308 649.362122,347.184387 
	C651.185913,346.980377 652.601990,346.902435 654.263428,346.913147 
	C654.672485,346.942627 654.836060,346.883423 654.999695,346.824219 
	C656.249573,347.337769 657.499512,347.851318 658.554199,348.799469 
	C658.222900,349.488495 658.266235,349.714508 658.489014,349.912048 
z"/>
<path fill="#1B1035" opacity="1.000000" stroke="none" d="
M535.823975,394.861877 
	C535.332825,375.182617 535.245422,355.553436 535.161621,335.924225 
	C535.157349,334.925690 535.183960,333.927063 535.129639,332.463806 
	C535.063049,331.999115 535.329285,331.774323 535.270996,331.610107 
	C536.549377,331.318939 537.886169,331.191925 539.612183,330.953308 
	C541.022400,331.295441 542.043274,331.749176 543.036133,332.901672 
	C543.095581,334.089111 543.183044,334.577789 543.246338,335.530182 
	C543.224854,355.328400 543.227539,374.662842 543.230225,393.997314 
	C540.896362,394.302185 538.562439,394.607056 535.823975,394.861877 
z"/>
<path fill="#1B1035" opacity="1.000000" stroke="none" d="
M682.144043,339.527771 
	C681.656372,336.880585 680.327271,333.986938 681.002869,331.680511 
	C681.395569,330.339966 685.005432,329.941864 687.583374,329.099304 
	C687.999146,329.078918 688.272339,329.494598 688.606140,329.682617 
	C689.129089,330.095062 689.367859,330.179932 689.735168,330.476685 
	C690.773254,338.010651 689.542786,339.406281 682.144043,339.527771 
z"/>
<path fill="#1B1035" opacity="1.000000" stroke="none" d="
M647.187134,337.959747 
	C647.238281,339.333038 647.156494,340.396973 646.967590,341.710938 
	C646.659912,340.532135 646.459290,339.103302 646.440002,337.404480 
	C646.765564,337.306396 646.909851,337.478394 647.187134,337.959747 
z"/>
<path fill="#1B1035" opacity="1.000000" stroke="none" d="
M459.017914,157.393600 
	C461.691071,157.494553 464.364197,157.595505 467.818726,157.803375 
	C469.110291,157.819290 469.620514,157.728271 470.130707,157.637253 
	C471.171844,158.195862 473.117126,158.753769 473.117554,159.313171 
	C473.123260,166.812790 472.857452,174.312622 472.336121,182.030045 
	C466.903656,182.229050 461.794189,182.210419 455.888855,182.186920 
	C451.589478,182.315445 448.085968,182.448853 444.595276,182.606781 
	C444.608093,182.631317 444.544250,182.590851 444.260010,182.366211 
	C442.614044,182.141556 441.252350,182.141556 439.914856,182.141556 
	C439.914856,185.838730 439.914856,188.931442 439.800964,192.476868 
	C439.763336,197.627472 439.839569,202.325348 439.785339,207.415451 
	C439.744598,223.876450 439.834351,239.945206 439.805664,256.468750 
	C439.687256,265.581665 439.687256,274.239838 439.687256,282.462524 
	C431.446838,283.105072 424.705231,283.630737 417.831604,283.884949 
	C416.812225,283.793060 415.924774,283.972626 414.730774,283.909271 
	C412.625519,283.407715 410.826843,283.149109 409.031494,282.428680 
	C409.000183,262.225098 408.999817,242.483231 408.913971,222.741730 
	C408.879395,214.793839 408.657410,206.846771 408.597260,198.444977 
	C408.582458,193.033768 408.491150,188.076904 408.438812,182.842102 
	C407.978394,182.472076 407.479004,182.379990 406.583038,182.236557 
	C405.130035,182.267471 404.073608,182.349747 402.592346,182.320923 
	C400.126617,182.265640 398.085693,182.321426 395.596252,182.262741 
	C391.768433,182.214188 388.389221,182.280121 385.009979,182.346069 
	C382.859985,182.293381 380.655762,182.508530 378.580078,182.088638 
	C377.313049,181.832306 376.243652,180.599014 375.065125,178.939285 
	C374.984680,171.719208 374.924591,165.364380 375.002747,158.803741 
	C375.140961,158.597931 375.181274,158.103729 375.181274,158.103729 
	C375.181274,158.103729 375.574585,158.025299 376.054016,157.978333 
	C376.716034,157.841705 376.898560,157.752045 377.479858,157.692078 
	C378.929169,157.624893 379.979675,157.528015 381.481201,157.556458 
	C407.627441,157.585724 433.322662,157.489655 459.017914,157.393600 
z"/>
<path fill="#8E8CA0" opacity="1.000000" stroke="none" d="
M409.031494,282.428680 
	C409.047333,283.080841 409.066559,283.271149 409.043091,283.745422 
	C408.035461,281.468506 406.846222,278.963776 406.186249,276.326599 
	C405.761749,274.630310 406.115387,272.739319 406.117340,270.481079 
	C406.474548,246.990341 406.829254,223.954025 407.224518,200.918427 
	C407.234772,200.319733 407.688202,199.728653 408.227844,199.016663 
	C408.657410,206.846771 408.879395,214.793839 408.913971,222.741730 
	C408.999817,242.483231 409.000183,262.225098 409.031494,282.428680 
z"/>
<path fill="#8E8CA0" opacity="1.000000" stroke="none" d="
M391.005707,183.971664 
	C389.941772,183.957336 388.877869,183.942993 387.415466,183.912933 
	C386.457245,183.515671 385.897491,183.134155 385.173859,182.549347 
	C388.389221,182.280121 391.768433,182.214188 395.611450,182.519348 
	C396.029602,183.228989 395.984039,183.567566 395.938477,183.906128 
	C395.202393,183.921661 394.466309,183.937195 393.030823,183.954803 
	C391.889526,183.961807 391.447632,183.966736 391.005707,183.971664 
z"/>
<path fill="#8E8CA0" opacity="1.000000" stroke="none" d="
M375.002747,158.803741 
	C374.570099,158.905136 374.352509,158.713531 374.137024,158.226471 
	C374.249603,158.023361 374.436798,158.028488 374.902649,158.068665 
	C375.181274,158.103729 375.140961,158.597931 375.002747,158.803741 
z"/>
<path fill="#8E8CA0" opacity="1.000000" stroke="none" d="
M375.965271,157.188995 
	C376.300751,157.009750 376.588013,157.107101 376.967896,157.463776 
	C376.898560,157.752045 376.716034,157.841705 376.231903,157.885712 
	C375.930328,157.840073 375.937622,157.404861 375.965271,157.188995 
z"/>
<path fill="#1B1035" opacity="1.000000" stroke="none" d="
M682.037292,394.910004 
	C682.028625,394.644623 681.974854,394.388672 681.775330,393.542480 
	C681.543884,384.784821 681.262695,376.625732 681.327637,368.469360 
	C681.384399,361.332947 681.830505,354.199646 682.104614,347.064972 
	C682.104614,347.064972 682.014954,347.036285 682.463257,347.028687 
	C684.867310,347.147949 686.822998,347.274780 689.349609,347.438629 
	C689.349609,363.293427 689.349609,378.826569 689.349609,394.359711 
	C688.462524,394.603149 687.575439,394.846588 686.092407,395.083954 
	C684.343445,395.021912 683.190369,394.965973 682.037292,394.910004 
z"/>
<path fill="#1B1035" opacity="1.000000" stroke="none" d="
M637.637207,346.190308 
	C637.333435,348.638245 636.671082,351.277954 636.007568,354.324829 
	C628.515503,355.655304 633.471313,350.037323 631.762085,347.708801 
	C633.938660,347.185364 635.608704,346.783752 637.637207,346.190308 
z"/>
<path fill="#1B1035" opacity="1.000000" stroke="none" d="
M639.686890,336.289642 
	C639.585083,336.871948 639.162415,337.395660 638.469360,337.961334 
	C638.587952,337.412537 638.977051,336.821777 639.686890,336.289642 
z"/>
<path fill="#8E8CA0" opacity="1.000000" stroke="none" d="
M543.874939,332.925171 
	C543.936951,333.543091 543.803711,334.099884 543.470459,334.861572 
	C543.183044,334.577789 543.095581,334.089111 543.139648,333.244843 
	C543.271057,332.889221 543.679626,332.864044 543.874939,332.925171 
z"/>
<path fill="#1B1035" opacity="1.000000" stroke="none" d="
M658.591553,349.707153 
	C658.266235,349.714508 658.222900,349.488495 658.456421,349.150085 
	C658.553955,349.066132 658.693970,349.502289 658.591553,349.707153 
z"/>
<path fill="url(#iconGrad)" opacity="1.000000" stroke="none" d="
M82.021927,325.063843 
	C81.717110,324.920959 81.412292,324.778046 80.612167,324.444763 
	C78.414871,323.844574 76.712891,323.434723 75.010902,323.024902 
	C70.785820,320.916748 66.560753,318.808594 62.145111,316.042877 
	C61.822067,314.741302 61.916306,313.824799 61.521385,313.496246 
	C58.231369,310.759094 58.902390,309.031311 61.834404,305.982788 
	C64.116188,303.610321 65.954926,299.664490 63.789944,295.533661 
	C62.580402,293.225830 61.146637,290.480774 61.365410,288.073761 
	C62.387589,276.827484 62.138992,265.409332 65.646347,254.451233 
	C67.592636,248.370422 69.281952,242.192245 70.747543,235.977890 
	C71.752174,231.718079 69.360268,230.894257 65.150192,230.960648 
	C60.638866,231.031830 56.068222,228.956528 51.594303,227.586655 
	C51.079445,227.429031 51.018303,225.789566 50.761368,224.848495 
	C50.775940,224.859833 50.800167,224.836365 51.181866,224.842697 
	C52.338543,223.473755 53.113522,222.098465 53.908165,220.530640 
	C54.031994,220.077866 54.219662,219.912277 54.868698,219.842743 
	C55.824165,218.914871 56.401775,217.985596 56.975639,217.017395 
	C56.971893,216.978470 57.048691,216.963715 57.262520,216.825531 
	C57.626022,216.387665 57.775696,216.087997 58.020699,215.489990 
	C59.034126,214.351959 59.952217,213.512253 60.950821,213.032745 
	C64.241241,216.946564 66.533669,213.100403 68.626503,211.990219 
	C77.383614,207.344955 77.353798,207.103607 82.673767,215.531204 
	C84.977638,219.180862 87.194153,222.833267 83.935204,227.405441 
	C81.779060,230.430420 80.428490,234.042404 78.818466,237.439560 
	C77.670517,239.861725 76.690834,242.363632 75.351059,245.496368 
	C78.140915,245.340866 79.742043,245.251617 81.321236,245.543793 
	C80.081291,249.238693 78.863274,252.552185 77.423203,256.152283 
	C75.072609,262.274567 73.634727,268.125824 76.825699,274.447144 
	C77.250710,276.209290 77.653679,277.605103 77.792633,279.233398 
	C78.019104,281.809967 78.163338,284.297424 79.063469,286.471985 
	C82.051582,293.690735 84.924011,301.004791 88.606094,307.871979 
	C90.993301,312.324188 91.472527,313.658386 86.954376,315.748322 
	C84.139824,317.050232 83.679710,318.546021 84.518105,321.182983 
	C84.909882,322.415253 84.858940,323.788208 84.634842,325.139343 
	C83.514664,325.142151 82.768295,325.102997 82.021927,325.063843 
z"/>
<path fill="url(#iconGrad)" opacity="1.000000" stroke="none" d="
M50.746796,224.837158 
	C51.018303,225.789566 51.079445,227.429031 51.594303,227.586655 
	C56.068222,228.956528 60.638866,231.031830 65.150192,230.960648 
	C69.360268,230.894257 71.752174,231.718079 70.747543,235.977890 
	C69.281952,242.192245 67.592636,248.370422 65.646347,254.451233 
	C62.138992,265.409332 62.387589,276.827484 61.365410,288.073761 
	C61.146637,290.480774 62.580402,293.225830 63.789944,295.533661 
	C65.954926,299.664490 64.116188,303.610321 61.834404,305.982788 
	C58.902390,309.031311 58.231369,310.759094 61.521385,313.496246 
	C61.916306,313.824799 61.822067,314.741302 61.941338,315.772827 
	C58.146919,313.213409 54.365707,310.266449 50.229553,306.896057 
	C49.599510,306.265991 49.324417,306.059418 49.049320,305.852844 
	C49.044819,305.532898 48.914425,305.277161 48.377312,304.730652 
	C47.722183,303.956879 47.347881,303.538086 46.973579,303.119293 
	C46.973583,303.119293 46.995380,303.035034 46.878487,302.688721 
	C31.737654,278.167572 33.399921,245.839279 50.746796,224.837158 
z"/>
<path fill="url(#iconGrad)" opacity="1.000000" stroke="none" d="
M177.202026,420.036743 
	C175.291382,420.207947 173.575058,420.179474 171.369858,419.717590 
	C169.267319,418.300201 167.653641,417.316193 166.039963,416.332214 
	C166.320923,415.796387 166.601868,415.260590 166.882828,414.724792 
	C174.778458,413.665436 173.344635,406.705566 175.374008,402.055206 
	C178.705826,394.420380 171.134262,393.066559 168.016312,389.456787 
	C164.468307,391.186066 161.282852,392.738647 157.581665,394.542572 
	C157.171417,391.553284 156.905365,389.614685 156.639313,387.676086 
	C156.639313,387.676086 156.914673,387.898804 157.146698,387.837402 
	C157.930222,386.885223 158.481705,385.994476 159.033203,385.103760 
	C159.809128,384.133972 160.585052,383.164185 162.032364,382.085693 
	C163.444229,380.936523 164.184692,379.896057 164.925171,378.855591 
	C164.962082,378.512939 165.128067,378.252655 166.042694,378.019043 
	C167.400360,376.884033 168.138489,375.804657 168.876617,374.725281 
	C168.951263,374.557739 169.025940,374.390198 169.415802,374.011810 
	C169.731003,373.800995 169.997849,373.471130 169.997849,373.471130 
	C170.255859,373.104858 170.513870,372.738586 171.378494,372.156372 
	C172.618729,371.184570 173.252350,370.428741 173.885986,369.672882 
	C174.188461,369.214417 174.490952,368.755920 175.354919,368.121643 
	C176.615067,367.014435 177.313751,366.083008 178.012436,365.151611 
	C178.012436,365.151611 177.998108,364.998291 178.260422,364.897034 
	C178.753632,364.621094 178.908539,364.394440 178.987473,364.115845 
	C178.987473,364.115845 178.991287,364.001556 179.348541,363.961548 
	C180.139709,363.314392 180.573608,362.707214 181.007507,362.100006 
	C181.007492,362.100006 181.006134,361.993622 181.256332,361.894714 
	C181.750565,361.612488 181.919388,361.375580 182.013046,361.085052 
	C182.185852,360.788818 182.358643,360.492584 182.991348,359.990234 
	C183.720856,359.582855 183.897491,359.319275 183.981171,358.993408 
	C183.981171,358.993408 183.997467,358.997559 184.216446,358.883545 
	C184.711349,358.564789 184.883545,358.294128 184.952011,357.957458 
	C186.082581,356.697754 187.213135,355.438049 188.663147,354.461975 
	C188.132828,357.290070 187.283051,359.834503 186.569077,361.972290 
	C191.581055,361.972290 196.371048,361.963745 201.161011,361.975098 
	C204.645538,361.983337 205.102646,364.039825 204.856339,366.993622 
	C204.308884,373.558441 201.147171,378.888214 197.487976,384.092957 
	C196.269180,385.826538 195.567780,387.923889 194.971893,389.150757 
	C197.281601,391.000793 198.685333,392.125153 199.961548,393.549377 
	C193.230011,401.568878 186.625992,409.288544 179.708481,417.044373 
	C178.921036,417.691345 178.447067,418.302155 177.973114,418.912964 
	C177.780853,419.221008 177.588593,419.529022 177.202026,420.036743 
z"/>
<path fill="url(#iconGrad)" opacity="1.000000" stroke="none" d="
M200.089066,393.249512 
	C198.685333,392.125153 197.281601,391.000793 194.971893,389.150757 
	C195.567780,387.923889 196.269180,385.826538 197.487976,384.092957 
	C201.147171,378.888214 204.308884,373.558441 204.856339,366.993622 
	C205.102646,364.039825 204.645538,361.983337 201.161011,361.975098 
	C196.371048,361.963745 191.581055,361.972290 186.569077,361.972290 
	C187.283051,359.834503 188.132828,357.290070 188.966370,354.356934 
	C188.950150,353.968201 188.981186,353.987854 189.195175,353.866394 
	C189.683670,353.541840 189.869492,353.276642 189.966644,352.949310 
	C189.966644,352.949310 189.999115,352.998840 190.199280,352.869080 
	C190.583115,352.462463 190.766785,352.185577 190.950455,351.908691 
	C190.950455,351.908691 190.981155,351.980286 191.179199,351.846832 
	C191.554260,351.417267 191.731293,351.121124 191.908325,350.824982 
	C191.908325,350.824982 191.934631,350.342041 192.221222,350.015991 
	C192.949158,349.107056 193.390503,348.524200 193.831848,347.941345 
	C193.831848,347.941345 193.951019,347.943024 194.200653,347.783508 
	C194.897446,347.061462 195.344589,346.498932 195.791748,345.936401 
	C195.791763,345.936401 195.942291,345.944519 196.201141,345.767334 
	C196.754807,345.126068 197.049637,344.661957 197.344482,344.197845 
	C197.344482,344.197845 197.216843,344.208130 197.543121,344.148102 
	C198.664093,343.124359 199.458801,342.160614 200.253510,341.196899 
	C200.253525,341.196899 200.128418,341.089905 200.477020,341.043091 
	C204.804092,337.147827 208.782578,333.299408 212.822891,329.878723 
	C213.856567,336.267792 215.044205,336.828857 221.350815,334.306091 
	C225.984711,332.452423 230.958145,335.084290 230.482162,339.531372 
	C230.074493,343.340179 229.073257,347.245972 227.492615,350.726471 
	C225.679001,354.719940 222.833069,358.232666 220.650650,362.076324 
	C219.770950,363.625610 219.461700,365.498749 218.892853,367.224518 
	C219.303528,367.532898 219.714188,367.841278 220.124863,368.149628 
	C221.504013,367.262390 223.074570,366.572052 224.227264,365.451813 
	C228.026657,361.759338 231.571518,357.800507 235.442688,354.188995 
	C236.637680,353.074158 238.563766,352.743011 240.023315,352.365540 
	C226.624039,366.201904 213.356552,379.725708 200.089066,393.249512 
z"/>
<path fill="url(#iconGrad)" opacity="1.000000" stroke="none" d="
M134.046707,325.865021 
	C126.967171,326.099823 119.887627,326.334625 112.413452,326.034607 
	C111.856735,321.571625 111.353508,317.883881 116.290718,315.672638 
	C117.712807,315.035767 118.566940,310.104370 117.672661,307.992584 
	C116.119934,304.325867 112.789429,301.454102 110.632767,297.982849 
	C109.588951,296.302765 109.516823,294.018982 109.472855,292.003387 
	C119.958809,291.996063 129.976654,291.993896 139.950867,292.354279 
	C140.214478,294.438751 140.002228,296.587524 140.970673,297.766174 
	C142.001465,299.020721 144.446335,299.020050 145.747955,300.165161 
	C148.319839,302.427765 151.983063,304.814178 152.550232,307.673950 
	C153.417328,312.046051 150.916946,315.820282 145.518631,316.377777 
	C144.101807,316.524109 142.475922,317.147125 141.450821,318.096344 
	C138.831116,320.522125 136.495773,323.254974 134.046707,325.865021 
z"/>
<path fill="url(#iconGrad)" opacity="1.000000" stroke="none" d="
M109.004761,292.008545 
	C109.516823,294.018982 109.588951,296.302765 110.632767,297.982849 
	C112.789429,301.454102 116.119934,304.325867 117.672661,307.992584 
	C118.566940,310.104370 117.712807,315.035767 116.290718,315.672638 
	C111.353508,317.883881 111.856735,321.571625 112.029022,325.894714 
	C110.957970,326.474213 109.876694,326.658844 107.944412,326.843750 
	C103.036514,326.722961 98.979630,326.601837 94.707199,326.345306 
	C94.155861,326.223816 93.820061,326.237793 93.484268,326.251740 
	C93.484268,326.251740 93.256134,326.379639 93.001953,326.043549 
	C91.845238,325.795502 90.942696,325.883545 89.771118,326.016113 
	C89.330887,325.999420 89.159698,325.938202 88.755623,325.667603 
	C88.115349,325.391663 87.707970,325.325134 87.036407,325.427765 
	C86.184372,325.430450 85.596512,325.263916 85.008659,325.097412 
	C84.858940,323.788208 84.909882,322.415253 84.518105,321.182983 
	C83.679710,318.546021 84.139824,317.050232 86.954376,315.748322 
	C91.472527,313.658386 90.993301,312.324188 88.606094,307.871979 
	C84.924011,301.004791 82.051582,293.690735 79.063469,286.471985 
	C78.163338,284.297424 78.019104,281.809967 77.971054,279.513947 
	C80.605453,281.712585 82.797417,283.863098 85.206001,286.245239 
	C85.831451,286.543121 86.240273,286.609406 86.893173,286.653503 
	C87.469223,286.704346 87.745079,286.870514 88.024651,287.488831 
	C89.844910,288.855804 91.517448,290.489990 93.382622,290.751862 
	C98.547043,291.476776 103.791771,291.629608 109.004761,292.008545 
z"/>
<path fill="url(#iconGrad)" opacity="1.000000" stroke="none" d="
M156.322296,387.762451 
	C156.905365,389.614685 157.171417,391.553284 157.581665,394.542572 
	C161.282852,392.738647 164.468307,391.186066 168.016312,389.456787 
	C171.134262,393.066559 178.705826,394.420380 175.374008,402.055206 
	C173.344635,406.705566 174.778458,413.665436 166.882828,414.724792 
	C166.601868,415.260590 166.320923,415.796387 166.039963,416.332214 
	C167.653641,417.316193 169.267319,418.300201 170.949554,419.625732 
	C156.537354,419.967255 142.056610,419.967255 126.401222,419.967255 
	C128.306183,417.292877 129.761734,415.249390 131.359161,412.905762 
	C131.501038,412.605560 131.501984,412.501190 131.778351,412.367615 
	C132.822845,411.164001 133.590973,410.093964 134.359100,409.023895 
	C141.574493,401.965515 148.789902,394.907166 156.322296,387.762451 
z"/>
<path fill="url(#iconGrad)" opacity="1.000000" stroke="none" d="
M134.038589,326.004944 
	C136.495773,323.254974 138.831116,320.522125 141.450821,318.096344 
	C142.475922,317.147125 144.101807,316.524109 145.518631,316.377777 
	C150.916946,315.820282 153.417328,312.046051 152.550232,307.673950 
	C151.983063,304.814178 148.319839,302.427765 145.747955,300.165161 
	C144.446335,299.020050 142.001465,299.020721 140.970673,297.766174 
	C140.002228,296.587524 140.214478,294.438751 140.418793,292.347656 
	C148.625061,291.736237 156.319748,291.493958 164.010956,291.625183 
	C163.784866,297.710358 169.069885,298.708801 172.366074,300.587463 
	C177.774261,303.669800 174.852036,307.899597 174.726746,311.474670 
	C174.663712,313.273315 172.196777,316.049744 170.344833,316.518372 
	C165.404465,317.768372 162.537140,319.997681 162.589905,325.531738 
	C160.454803,325.832977 158.727646,325.987915 157.000504,326.142853 
	C156.231613,326.085999 155.462723,326.029144 154.088196,325.970154 
	C153.319382,325.910065 153.156204,325.852081 152.898300,325.657471 
	C152.453369,325.352966 152.188309,325.449219 151.544266,325.877136 
	C145.390732,326.104584 139.701294,326.264526 134.011871,326.424500 
	C134.011871,326.424500 134.030472,326.144836 134.038589,326.004944 
z"/>
<path fill="url(#iconGrad)" opacity="1.000000" stroke="none" d="
M155.774597,120.672501 
	C157.357788,120.093147 158.925125,119.070900 160.527023,119.013504 
	C166.468613,118.800629 172.421600,118.905624 178.760254,118.752197 
	C181.818634,118.620705 184.487061,118.628235 187.978683,118.645920 
	C191.889572,118.920113 194.977249,119.184151 197.897552,119.783875 
	C195.978790,120.390434 194.227142,120.896515 192.476120,120.894356 
	C180.242203,120.879288 168.008423,120.759056 155.774597,120.672501 
z"/>
<path fill="url(#iconGrad)" opacity="1.000000" stroke="none" d="
M176.442535,325.897095 
	C173.274963,325.931854 170.546463,325.868439 167.548676,325.331421 
	C173.176422,324.904327 179.073441,324.950745 184.970474,324.997192 
	C184.970474,324.997192 184.983795,325.422638 184.957565,325.633789 
	C182.248093,325.829559 179.564865,325.814209 176.442535,325.897095 
z"/>
<path fill="url(#iconGrad)" opacity="1.000000" stroke="none" d="
M200.160110,119.426758 
	C200.160110,119.426758 200.158829,118.976402 200.203171,118.756668 
	C200.910217,118.564583 201.572906,118.592224 202.559296,118.542534 
	C203.098282,120.116730 207.853058,116.169411 205.111008,120.849976 
	C203.070404,120.444664 201.615250,119.935707 200.160110,119.426758 
z"/>
<path fill="url(#iconGrad)" opacity="1.000000" stroke="none" d="
M164.624664,378.960815 
	C164.184692,379.896057 163.444229,380.936523 162.324951,381.968933 
	C162.738815,380.995880 163.531494,380.030945 164.624664,378.960815 
z"/>
<path fill="url(#iconGrad)" opacity="1.000000" stroke="none" d="
M168.578766,374.851074 
	C168.138489,375.804657 167.400360,376.884033 166.271942,377.953064 
	C166.681396,376.954071 167.481155,375.965485 168.578766,374.851074 
z"/>
<path fill="url(#iconGrad)" opacity="1.000000" stroke="none" d="
M158.740189,385.194092 
	C158.481705,385.994476 157.930222,386.885223 157.021515,387.712158 
	C157.258606,386.860352 157.852905,386.072388 158.740189,385.194092 
z"/>
<path fill="url(#iconGrad)" opacity="1.000000" stroke="none" d="
M177.729736,365.242859 
	C177.313751,366.083008 176.615067,367.014435 175.611145,368.006775 
	C176.019608,367.156494 176.733322,366.245270 177.729736,365.242859 
z"/>
<path fill="url(#iconGrad)" opacity="1.000000" stroke="none" d="
M90.745575,326.627411 
	C90.497032,326.710754 90.263702,326.344269 90.151932,326.157928 
	C90.942696,325.883545 91.845238,325.795502 92.901451,325.959900 
	C92.368126,326.322906 91.681122,326.433472 90.745575,326.627411 
z"/>
<path fill="url(#iconGrad)" opacity="1.000000" stroke="none" d="
M173.590103,369.759705 
	C173.252350,370.428741 172.618729,371.184570 171.681427,372.001801 
	C172.016571,371.324280 172.655411,370.585388 173.590103,369.759705 
z"/>
<path fill="url(#iconGrad)" opacity="1.000000" stroke="none" d="
M180.732086,362.175018 
	C180.573608,362.707214 180.139709,363.314392 179.405716,363.962952 
	C179.555969,363.419586 180.006317,362.834808 180.732086,362.175018 
z"/>
<path fill="url(#iconGrad)" opacity="1.000000" stroke="none" d="
M94.707199,326.345306 
	C94.743362,326.593262 94.563965,326.705811 94.090523,326.940430 
	C93.796471,327.062561 93.643898,326.655609 93.564087,326.453674 
	C93.820061,326.237793 94.155861,326.223816 94.707199,326.345306 
z"/>
<path fill="url(#iconGrad)" opacity="1.000000" stroke="none" d="
M178.761810,364.158081 
	C178.908539,364.394440 178.753632,364.621094 178.337067,364.889618 
	C178.110352,364.639191 178.238602,364.378143 178.761810,364.158081 
z"/>
<path fill="url(#iconGrad)" opacity="1.000000" stroke="none" d="
M190.697052,351.986115 
	C190.766785,352.185577 190.583115,352.462463 190.173981,352.853699 
	C190.113541,352.666565 190.278580,352.365051 190.697052,351.986115 
z"/>
<path fill="url(#iconGrad)" opacity="1.000000" stroke="none" d="
M181.784241,361.143127 
	C181.919388,361.375580 181.750565,361.612488 181.309525,361.893860 
	C181.109863,361.644196 181.257492,361.380615 181.784241,361.143127 
z"/>
<path fill="url(#iconGrad)" opacity="1.000000" stroke="none" d="
M183.735291,359.063538 
	C183.897491,359.319275 183.720856,359.582855 183.234772,359.891602 
	C183.175308,359.710602 183.332367,359.422119 183.735291,359.063538 
z"/>
<path fill="url(#iconGrad)" opacity="1.000000" stroke="none" d="
M184.710129,358.036743 
	C184.883545,358.294128 184.711349,358.564789 184.214233,358.875397 
	C184.151443,358.692871 184.309845,358.404419 184.710129,358.036743 
z"/>
<path fill="url(#iconGrad)" opacity="1.000000" stroke="none" d="
M189.718338,353.021912 
	C189.869492,353.276642 189.683670,353.541840 189.188263,353.853271 
	C189.134903,353.672638 189.302475,353.383575 189.718338,353.021912 
z"/>
<path fill="url(#iconGrad)" opacity="1.000000" stroke="none" d="
M169.850128,373.442993 
	C169.997849,373.471130 169.731003,373.800995 169.642761,373.856262 
	C169.412704,373.688873 169.462006,373.523315 169.850128,373.442993 
z"/>
<path fill="url(#iconGrad)" opacity="1.000000" stroke="none" d="
M191.653931,350.923431 
	C191.731293,351.121124 191.554260,351.417267 191.142212,351.834625 
	C191.071304,351.644562 191.235413,351.333221 191.653931,350.923431 
z"/>
<path fill="#1B1035" opacity="1.000000" stroke="none" d="
M791.292114,393.621338 
	C788.981323,394.304657 786.659424,394.605530 783.842041,394.575165 
	C782.961548,393.803009 782.576721,393.362091 782.191833,392.921143 
	C782.472107,391.510895 782.752380,390.100616 782.945007,388.383667 
	C782.991882,374.781677 783.126465,361.486359 783.200745,347.744965 
	C784.171387,347.257263 785.202393,347.215668 786.936157,347.247681 
	C788.093872,347.228058 788.548767,347.134918 789.003662,347.041748 
	C789.423218,347.108856 789.842834,347.175964 790.705322,347.581665 
	C791.424988,350.273895 791.701843,352.627533 791.875000,354.099976 
	C795.512390,351.736145 799.250732,349.306702 802.989014,346.877258 
	C806.645081,346.998901 810.301147,347.120575 814.631226,347.529236 
	C823.236328,351.817444 826.040771,358.611115 825.999634,367.086578 
	C825.962585,374.728027 826.133911,382.370514 826.108398,390.374420 
	C826.060913,391.482788 826.118408,392.229279 826.175964,392.975769 
	C826.038391,393.381287 825.900879,393.786774 825.347534,394.551758 
	C823.956604,395.052826 822.981567,395.194397 821.644165,395.220184 
	C820.280823,394.961609 819.279724,394.818878 818.278625,394.676117 
	C818.278625,394.676117 818.171021,394.787231 818.161560,394.320435 
	C818.010864,384.709351 818.013550,375.559906 817.686218,366.422302 
	C817.384827,358.012512 813.304382,353.890076 805.330444,354.018402 
	C797.368164,354.146515 792.047058,356.555817 791.691711,365.611328 
	C791.359924,374.064636 791.672852,382.543243 791.702026,391.010712 
	C791.561707,391.753418 791.421387,392.496124 791.292114,393.621338 
z"/>
<path fill="#1B1035" opacity="1.000000" stroke="none" d="
M882.959351,375.115906 
	C883.234436,375.602905 883.509521,376.089874 884.038574,377.185608 
	C886.851074,387.449097 881.753235,394.655975 871.943787,395.482361 
	C864.555176,396.104797 857.844238,394.668549 852.107544,389.730286 
	C852.107544,389.730286 852.140686,389.341431 852.100708,388.890259 
	C851.789856,388.195435 851.518982,387.951813 851.248169,387.708191 
	C851.248169,387.708160 851.123962,387.879974 851.077393,387.481567 
	C850.491455,384.772430 849.952087,382.461731 849.412720,380.151001 
	C850.088501,379.952545 850.764282,379.754028 852.003906,379.606934 
	C854.010010,380.323792 856.173035,380.601532 856.774597,381.719421 
	C860.044250,387.795685 864.457031,390.466583 871.363159,388.923981 
	C873.462708,388.454987 876.284973,386.033600 876.602173,384.141846 
	C876.964478,381.981415 875.506531,378.689026 873.735779,377.210236 
	C871.602112,375.428406 868.262634,375.145721 865.525330,374.019287 
	C860.679260,372.025177 855.893677,369.884003 851.082825,367.804382 
	C845.867065,356.839203 852.034363,347.081573 864.202515,347.046936 
	C876.126770,347.012970 883.276428,352.540344 883.673828,362.715118 
	C882.169983,363.235199 880.892151,363.742981 879.831970,363.453491 
	C878.540833,363.100861 876.654114,362.299103 876.372070,361.308197 
	C874.532471,354.846802 866.964478,350.990234 860.996521,354.179352 
	C859.274780,355.099335 857.460327,357.623962 857.425476,359.446136 
	C857.387024,361.458862 858.845093,364.392426 860.541138,365.351410 
	C863.622620,367.093872 867.362488,367.672302 871.102661,368.931702 
	C873.888367,369.827728 876.398926,370.528595 879.071777,371.498474 
	C880.475830,372.883636 881.717590,373.999786 882.959351,375.115906 
z"/>
<path fill="#8E8CA0" opacity="1.000000" stroke="none" d="
M826.108398,390.374420 
	C826.493042,390.134003 826.698181,390.332520 826.915039,390.808777 
	C826.862427,391.540314 826.723572,392.071167 826.380310,392.788910 
	C826.118408,392.229279 826.060913,391.482788 826.108398,390.374420 
z"/>
<path fill="url(#iconGrad)" opacity="1.000000" stroke="none" d="
M257.124176,208.308685 
	C259.634613,209.596725 261.797913,210.902130 263.670135,212.591064 
	C260.591980,212.298462 257.804932,211.622360 254.798019,210.697327 
	C253.718292,210.327026 252.858414,210.205658 251.626129,210.055374 
	C250.507629,209.988235 249.761520,209.950012 248.757416,209.652618 
	C246.920654,208.916504 245.357803,208.093399 243.760544,208.020126 
	C234.845474,207.611160 225.922104,207.383667 216.576096,207.071136 
	C211.425827,207.362076 206.701035,207.676010 201.509094,207.983643 
	C190.358261,208.315155 179.674561,208.653000 168.526093,208.989166 
	C160.103745,209.389435 152.146133,209.791336 142.882538,210.259216 
	C145.417496,213.733719 147.111832,215.906296 148.634644,218.193100 
	C149.748322,219.865540 151.839600,222.766327 151.407318,223.248764 
	C149.900818,224.930023 147.583328,226.499344 145.392838,226.802887 
	C142.415878,227.215408 141.815735,228.540344 141.972397,231.036453 
	C142.055420,232.359116 141.992966,233.690903 141.678589,234.907593 
	C138.968658,232.486008 136.551254,230.200714 134.189011,227.859772 
	C128.431793,222.154404 122.700127,216.423264 117.028015,210.406006 
	C118.066666,209.074661 119.035469,208.039795 120.269753,206.987778 
	C120.887802,206.978729 121.240379,206.986847 121.592949,206.994965 
	C134.896240,206.749588 148.199387,206.496429 161.502853,206.260925 
	C177.151276,205.983917 192.802475,205.416748 208.447830,205.544022 
	C222.695312,205.659958 236.936600,206.536911 251.590118,207.012115 
	C253.592117,207.405899 255.184586,207.865982 257.124176,208.308685 
z"/>
<path fill="url(#iconGrad)" opacity="1.000000" stroke="none" d="
M179.708481,417.044373 
	C179.725464,417.484100 179.428940,417.960022 179.034027,418.703552 
	C178.935623,418.971222 178.453308,418.959381 178.213196,418.936157 
	C178.447067,418.302155 178.921036,417.691345 179.708481,417.044373 
z"/>
<path fill="#1B1035" opacity="1.000000" stroke="none" d="
M881.992065,281.000305 
	C881.804749,281.588409 881.617432,282.176483 880.755493,282.989166 
	C871.045044,283.283020 862.009094,283.352264 852.656738,283.298767 
	C852.117004,283.140259 851.893616,283.104492 851.603210,282.857422 
	C851.442749,282.355743 851.277588,282.114471 851.097168,281.597595 
	C851.086548,280.841949 851.019470,280.410919 851.076904,279.807495 
	C851.124451,279.095428 851.047546,278.555756 851.060181,277.681305 
	C851.081970,276.894348 851.014038,276.442200 851.063599,275.630096 
	C851.325195,272.931458 851.469299,270.592773 851.613403,268.254089 
	C851.226440,268.141327 850.839417,268.028564 850.452454,267.915802 
	C849.641052,269.382294 848.829651,270.848755 847.701172,272.478577 
	C846.812683,273.386261 846.241272,274.130615 845.372803,275.013733 
	C835.178833,284.117676 823.965088,286.992218 810.743652,283.971191 
	C799.509338,281.404236 791.004883,275.742401 785.025574,266.018097 
	C784.660339,265.424194 783.775330,265.149933 783.161499,264.433777 
	C783.116638,263.760132 783.042358,263.379578 782.950684,262.637207 
	C782.029053,260.784515 780.972839,259.363831 780.246033,257.790894 
	C776.760315,250.246506 776.513855,242.081741 775.919312,233.589966 
	C775.946838,231.779449 775.899475,230.382538 775.926880,228.584778 
	C776.500671,226.156586 777.073120,224.144104 777.487061,222.099548 
	C781.472168,202.416458 791.022339,187.715561 812.559753,183.375595 
	C816.686340,183.288300 820.362244,183.125259 824.261597,183.114197 
	C825.007324,183.232101 825.529724,183.198059 826.416687,183.344391 
	C828.619202,183.871811 830.457031,184.218826 832.539917,184.749039 
	C833.185242,184.966370 833.585571,185.000519 834.250732,185.247650 
	C835.960815,186.116501 837.406189,186.772339 839.041748,187.686783 
	C843.209595,191.748047 847.187195,195.550720 851.376221,199.555527 
	C851.376221,194.597946 851.376221,189.364853 851.557495,184.179535 
	C851.738708,184.227295 852.003784,183.962189 852.256348,184.014557 
	C852.664795,183.994568 852.820801,183.922211 853.310242,183.950012 
	C854.095764,183.975281 854.547913,183.900360 855.000000,183.825439 
	C863.314880,183.899948 871.629822,183.974457 880.491089,184.383087 
	C881.291321,185.571625 881.545166,186.426086 881.708984,187.608917 
	C881.679993,188.610138 881.740967,189.283020 881.662109,190.135132 
	C881.625732,190.889694 881.729187,191.465027 881.760254,192.501678 
	C881.697815,207.225998 881.679016,221.489075 881.725647,235.751953 
	C881.772888,250.170166 881.884827,264.588165 881.865540,279.333679 
	C881.839050,280.107483 881.915588,280.553894 881.992065,281.000305 
M810.796204,220.515884 
	C807.256775,228.506683 807.032227,236.683701 809.877258,244.854736 
	C811.821899,250.440170 815.615356,254.757812 821.210327,256.780121 
	C831.623840,260.544128 843.020203,256.397827 848.156921,247.389465 
	C853.622803,237.803802 851.586487,221.797653 844.084473,215.378601 
	C833.469849,206.296310 820.795410,208.030838 810.796204,220.515884 
z"/>
<path fill="#1B1035" opacity="1.000000" stroke="none" d="
M620.001221,283.745117 
	C612.403137,283.745117 604.805054,283.745117 596.426025,283.745117 
	C596.426025,240.591568 596.426025,198.266174 596.431091,155.206787 
	C596.635132,153.652969 596.834106,152.833130 597.033081,152.013290 
	C597.033081,152.013290 597.506165,152.004395 598.012817,152.024414 
	C598.697021,151.960632 598.874512,151.876801 599.052002,151.792984 
	C607.038635,151.813675 615.027771,151.956802 623.010742,151.795944 
	C626.289185,151.729874 627.497192,152.877197 627.309570,156.126877 
	C627.118225,159.442291 627.308167,162.779724 627.340210,166.871460 
	C627.445374,168.082489 627.541443,168.529617 627.483643,169.342010 
	C627.436157,170.477554 627.542542,171.247803 627.501343,172.444153 
	C627.477722,183.576584 627.601624,194.282883 627.564087,205.430847 
	C627.357422,210.875336 627.312073,215.878174 627.123413,221.175812 
	C627.242676,222.064102 627.505310,222.657578 627.767944,223.251038 
	C628.208679,222.520020 628.649292,221.789001 629.219543,220.748901 
	C637.609558,209.375534 645.869995,198.311234 654.374146,187.102692 
	C654.736145,186.608582 654.854431,186.258728 654.972717,185.908844 
	C656.744934,185.304276 658.517151,184.699692 661.100464,184.088684 
	C667.658264,184.003036 673.405029,183.923813 679.151733,183.844589 
	C682.351074,183.977737 685.563477,183.987366 688.741028,184.325546 
	C689.601746,184.417130 690.356689,185.502243 690.685852,186.659012 
	C689.817200,187.857697 689.501282,188.592102 689.017090,189.190414 
	C677.936768,202.883179 666.914490,216.624466 655.679688,230.189590 
	C653.369690,232.978760 653.567932,235.047134 655.696960,237.575500 
	C660.512390,243.294052 665.161133,249.154251 670.026978,254.828812 
	C677.572205,263.628143 685.241882,272.320709 692.935303,281.317535 
	C693.268860,282.022827 693.526001,282.469147 693.407959,283.088470 
	C685.697266,283.364441 678.293884,282.877991 671.042603,283.712616 
	C660.918823,284.877930 653.070923,282.592346 648.670593,272.689270 
	C648.612915,272.559418 648.411072,272.493622 648.082092,272.127747 
	C641.667297,262.860291 635.446899,253.862991 629.207397,244.565063 
	C628.628174,243.793625 628.067993,243.322784 627.507812,242.851959 
	C627.425415,243.591431 627.342957,244.330902 627.209717,245.505615 
	C627.339600,247.965683 627.520386,249.990494 627.548523,252.425323 
	C627.401001,260.194916 627.406128,267.554443 627.255859,275.328796 
	C626.747253,278.230621 626.394043,280.717651 625.648621,283.151428 
	C623.504700,283.313812 621.752930,283.529449 620.001221,283.745117 
z"/>
<path fill="#1B1035" opacity="1.000000" stroke="none" d="
M704.552002,184.838943 
	C714.320557,184.598557 724.089111,184.358170 734.403992,184.440094 
	C735.161255,185.175552 735.372253,185.588684 735.446289,186.444855 
	C735.384399,190.589752 735.459534,194.291595 735.395630,198.289795 
	C735.433472,199.224457 735.610413,199.862762 735.787354,200.501099 
	C736.300476,200.046692 736.813538,199.592285 737.571899,199.065002 
	C737.994568,198.709595 738.171814,198.427048 738.645386,198.019241 
	C741.295776,195.594910 743.649841,193.295822 746.335449,190.897308 
	C752.773743,188.184814 758.880493,185.571762 765.428589,183.009460 
	C767.008606,183.985184 769.121460,184.894714 769.136414,185.837524 
	C769.296326,195.925552 769.124451,206.018875 768.626160,216.109894 
	C767.111633,216.216507 766.014465,216.323929 764.535034,216.317764 
	C763.102417,216.294373 762.052063,216.384567 760.580200,216.346558 
	C745.238647,215.275604 734.069702,223.877975 735.240601,240.542206 
	C735.904724,249.994583 735.366638,259.531464 735.369080,269.030304 
	C735.370239,273.657043 735.369263,278.283752 735.369263,283.019379 
	C724.807251,283.019379 714.864685,283.019379 704.866089,282.597046 
	C704.636536,280.778717 704.463135,279.382690 704.437378,277.540955 
	C704.593140,252.851822 704.608704,228.608459 704.585510,204.365112 
	C704.584473,203.245056 704.237061,202.125320 704.291443,200.596649 
	C704.281738,195.804413 704.031555,191.420959 704.080627,186.755035 
	C704.437317,185.928024 704.494629,185.383484 704.552002,184.838943 
z"/>
<path fill="#8E8CA0" opacity="1.000000" stroke="none" d="
M881.722656,183.970245 
	C882.082275,184.426926 882.153748,184.890289 882.179565,186.020416 
	C882.022217,186.884949 881.910645,187.082733 881.798950,187.280548 
	C881.545166,186.426086 881.291321,185.571625 880.951172,184.391541 
	C881.054810,184.036270 881.244629,184.006607 881.722656,183.970245 
z"/>
<path fill="#8E8CA0" opacity="1.000000" stroke="none" d="
M598.957275,151.618439 
	C598.874512,151.876801 598.697021,151.960632 598.239014,151.955048 
	C598.259827,151.725052 598.561218,151.584488 598.957275,151.618439 
z"/>
<path fill="#1B1035" opacity="1.000000" stroke="none" d="
M495.514343,347.267883 
	C507.483795,352.265503 512.751038,360.998108 512.164673,373.647034 
	C511.658905,384.556519 504.359772,394.889557 489.219604,395.793030 
	C481.179047,396.272858 474.891571,394.239960 469.512115,387.999329 
	C469.215637,387.843597 469.194458,387.899200 469.178162,387.504578 
	C467.505188,383.193420 464.739563,379.365601 464.417847,375.342346 
	C463.701965,366.389954 464.940399,357.726196 472.921295,351.497406 
	C478.692383,346.993317 485.306702,347.016968 491.998993,346.865112 
	C493.039368,347.000580 494.079712,347.136078 495.514343,347.267883 
M485.811523,388.004272 
	C488.537323,387.721527 491.263092,387.438782 494.727844,387.204895 
	C502.329956,383.561157 505.175568,376.428955 503.173706,366.036072 
	C501.800476,358.906799 496.814575,354.662994 489.640137,354.516907 
	C479.781250,354.316132 474.271057,359.111603 473.267212,368.766174 
	C472.208008,378.952759 476.595581,386.053436 485.811523,388.004272 
z"/>
<path fill="#1B1035" opacity="1.000000" stroke="none" d="
M410.126007,368.698273 
	C409.162445,364.413574 406.456482,360.925873 408.628754,355.554382 
	C411.237732,349.103058 415.764801,347.858246 421.272675,347.110901 
	C424.187225,346.715515 427.161377,346.759644 430.531616,346.694275 
	C436.516449,349.965057 441.469513,353.719727 443.554749,360.173096 
	C443.420715,360.474945 443.409637,360.781250 443.338715,361.447144 
	C441.121063,362.241058 439.086212,362.679810 437.234406,363.079132 
	C431.916199,354.386139 427.618317,351.751648 421.501648,353.798492 
	C419.499695,354.468414 416.987701,356.093475 416.362732,357.865112 
	C415.185577,361.202087 416.287567,364.544922 420.139862,365.875336 
	C423.695679,367.103333 427.362335,368.010315 431.189575,369.322388 
	C432.265289,369.722992 433.131683,369.859924 434.274292,370.207520 
	C435.646179,370.779388 436.741791,371.140564 437.969788,371.679504 
	C438.366058,371.996216 438.645081,372.090515 438.962097,372.489227 
	C440.573303,374.588745 442.161652,376.339172 443.821289,378.529602 
	C444.758331,386.689178 442.418274,392.654846 435.575104,394.155212 
	C428.207855,395.770477 420.066071,397.201874 413.061249,391.834595 
	C411.095032,388.456909 409.128815,385.079193 407.128204,380.981079 
	C409.490540,379.783142 411.887299,379.305664 414.189575,378.847015 
	C418.395294,387.759277 422.129913,390.074524 430.361267,389.050934 
	C434.519531,388.533844 436.498657,386.256866 436.209015,381.983551 
	C435.848114,376.659821 431.294922,376.302155 427.781921,374.938660 
	C421.965515,372.681061 416.018158,370.760742 410.126007,368.698273 
z"/>
<path fill="#8E8CA0" opacity="1.000000" stroke="none" d="
M874.397705,284.904541 
	C873.241272,284.908081 872.500000,284.904114 871.388428,284.905273 
	C865.112793,284.637390 859.207458,284.364349 853.137634,283.756409 
	C862.009094,283.352264 871.045044,283.283020 880.550293,283.223297 
	C878.950684,283.787567 876.881775,284.342316 874.397705,284.904541 
z"/>
<path fill="#1B1035" opacity="1.000000" stroke="none" d="
M717.062561,387.924438 
	C708.825623,375.768707 708.435120,353.897980 731.040161,346.412903 
	C739.076111,346.099670 746.351929,347.522308 752.637207,353.056305 
	C763.676880,362.776306 764.524963,388.531311 743.173279,395.092682 
	C735.472290,397.459198 727.404480,397.311462 720.357178,390.837555 
	C719.648132,390.249176 719.345886,390.062134 719.043579,389.875061 
	C719.026428,389.528442 718.870178,389.263916 718.257324,388.765442 
	C717.646240,388.259460 717.352661,388.069672 717.059021,387.879852 
	C717.059021,387.879852 717.033875,387.937988 717.062561,387.924438 
M740.670288,387.706940 
	C748.815735,385.168427 752.903259,378.046143 751.700806,368.487213 
	C750.618103,359.879730 744.501831,354.229126 736.511963,354.454712 
	C726.607056,354.734375 721.246643,359.906036 720.573059,369.832794 
	C719.912170,379.571381 724.580933,386.325928 733.759094,388.056305 
	C735.790833,387.935394 737.822510,387.814514 740.670288,387.706940 
z"/>
<path fill="url(#iconGrad)" opacity="1.000000" stroke="none" d="
M121.769211,206.788422 
	C121.240379,206.986847 120.887802,206.978729 120.040771,206.733765 
	C116.327568,205.587585 117.079964,203.661819 118.210075,201.535156 
	C121.708603,194.951508 125.290909,188.407166 128.579422,181.719101 
	C130.534760,177.742416 131.743576,173.090576 128.003799,169.780396 
	C124.403740,166.593918 119.600723,165.697067 115.132278,168.508331 
	C111.501328,170.792694 108.099113,170.996368 104.491982,168.781357 
	C113.757126,159.860748 123.022263,150.940140 132.618805,142.273254 
	C132.825333,144.462555 132.700470,146.398102 132.552368,148.693771 
	C133.516129,148.418243 134.351135,148.362885 134.973999,147.970657 
	C138.173157,145.956009 141.083328,142.871277 144.544022,142.046341 
	C148.395599,141.128235 153.959686,140.735245 156.546448,142.847214 
	C159.815964,145.516617 158.362289,150.360352 155.546951,154.376419 
	C151.103073,160.715576 147.495743,167.634796 143.350708,174.192413 
	C141.181564,177.624069 140.884552,180.475021 144.662369,182.863419 
	C140.930206,186.777008 137.198059,190.690598 132.818176,194.788696 
	C130.101532,197.255249 128.032639,199.537292 125.963730,201.819336 
	C125.963737,201.819351 125.809654,202.103424 125.320358,202.195801 
	C124.259438,202.907532 123.687820,203.526886 123.116211,204.146255 
	C123.116211,204.146255 123.048180,204.086304 122.833626,204.247360 
	C122.492996,204.789459 122.366920,205.170502 122.240845,205.551544 
	C122.142387,205.894989 122.043922,206.238449 121.769211,206.788422 
z"/>
<path fill="url(#iconGrad)" opacity="1.000000" stroke="none" d="
M144.962082,182.725113 
	C140.884552,180.475021 141.181564,177.624069 143.350708,174.192413 
	C147.495743,167.634796 151.103073,160.715576 155.546951,154.376419 
	C158.362289,150.360352 159.815964,145.516617 156.546448,142.847214 
	C153.959686,140.735245 148.395599,141.128235 144.544022,142.046341 
	C141.083328,142.871277 138.173157,145.956009 134.973999,147.970657 
	C134.351135,148.362885 133.516129,148.418243 132.552368,148.693771 
	C132.700470,146.398102 132.825333,144.462555 132.920593,142.111267 
	C137.997070,136.777008 143.103165,131.858475 148.698349,127.138191 
	C150.795532,127.711182 152.663956,128.810577 153.968979,128.341721 
	C161.766861,125.540222 169.304230,127.128471 176.871811,129.105515 
	C179.889145,129.893814 180.578171,131.699554 178.858658,134.263824 
	C175.087326,139.888016 171.624420,145.781784 167.303040,150.953354 
	C164.186096,154.683548 161.474396,157.843994 164.347824,162.775726 
	C157.985809,169.379410 151.623795,175.983109 144.962082,182.725113 
z"/>
<path fill="url(#iconGrad)" opacity="1.000000" stroke="none" d="
M164.666779,162.606400 
	C161.474396,157.843994 164.186096,154.683548 167.303040,150.953354 
	C171.624420,145.781784 175.087326,139.888016 178.858658,134.263824 
	C180.578171,131.699554 179.889145,129.893814 176.871811,129.105515 
	C169.304230,127.128471 161.766861,125.540222 153.968979,128.341721 
	C152.663956,128.810577 150.795532,127.711182 149.006805,126.989662 
	C150.555679,125.113472 152.285172,123.584061 154.585541,121.861496 
	C155.359375,121.354218 155.562347,121.040092 155.765305,120.725975 
	C155.765305,120.725975 155.783768,120.704292 155.779175,120.688400 
	C168.008423,120.759056 180.242203,120.879288 192.476120,120.894356 
	C194.227142,120.896515 195.978790,120.390434 197.897552,119.783875 
	C198.532272,119.382538 198.999603,119.316902 199.813522,119.339005 
	C201.615250,119.935707 203.070404,120.444664 204.869690,120.989441 
	C197.299866,129.420715 189.461426,137.889145 181.445343,146.185959 
	C176.089569,151.729324 170.481110,157.028580 164.666779,162.606400 
z"/>
<path fill="url(#iconGrad)" opacity="1.000000" stroke="none" d="
M126.260620,201.691605 
	C128.032639,199.537292 130.101532,197.255249 132.527924,194.957977 
	C130.776108,197.149780 128.666809,199.356827 126.260620,201.691605 
z"/>
<path fill="url(#iconGrad)" opacity="1.000000" stroke="none" d="
M123.403534,204.017792 
	C123.687820,203.526886 124.259438,202.907532 125.172073,202.259995 
	C124.905678,202.784317 124.298264,203.336823 123.403534,204.017792 
z"/>
<path fill="url(#iconGrad)" opacity="1.000000" stroke="none" d="
M122.522018,205.398148 
	C122.366920,205.170502 122.492996,204.789459 122.878548,204.241211 
	C123.026413,204.464264 122.914803,204.854507 122.522018,205.398148 
z"/>
<path fill="#1B1035" opacity="1.000000" stroke="none" d="
M657.653320,353.745483 
	C656.192627,354.239014 654.480896,354.529968 652.379883,354.699127 
	C653.444092,352.398834 655.007019,350.793549 657.653320,353.745483 
z"/>
<path fill="#1B1035" opacity="1.000000" stroke="none" d="
M647.675659,346.729797 
	C647.908386,346.968994 648.191467,347.095673 648.739624,347.210144 
	C648.330750,347.203308 647.707214,347.096130 647.182312,346.863190 
	C647.281006,346.737427 647.675659,346.729797 647.675659,346.729797 
z"/>
<path fill="#8E8CA0" opacity="1.000000" stroke="none" d="
M648.644409,354.765625 
	C648.609680,355.268707 648.245789,355.643463 647.614868,356.050964 
	C647.670227,355.601562 647.992737,355.119415 648.644409,354.765625 
z"/>
<path fill="#8E8CA0" opacity="1.000000" stroke="none" d="
M627.255859,275.328796 
	C628.056152,275.213196 628.701050,275.512421 629.584106,275.933289 
	C628.792236,279.000977 627.762085,281.946960 626.398682,284.644775 
	C626.057190,283.999298 626.049011,283.602020 626.040833,283.204712 
	C626.394043,280.717651 626.747253,278.230621 627.255859,275.328796 
z"/>
<path fill="#8E8CA0" opacity="1.000000" stroke="none" d="
M625.648621,283.151428 
	C626.049011,283.602020 626.057190,283.999298 626.025574,284.692261 
	C624.263489,285.024750 622.541199,285.061584 620.389404,285.053741 
	C619.935181,284.797394 619.910400,284.585693 619.943359,284.059509 
	C621.752930,283.529449 623.504700,283.313812 625.648621,283.151428 
z"/>
<path fill="#8E8CA0" opacity="1.000000" stroke="none" d="
M470.143250,157.365845 
	C469.620514,157.728271 469.110291,157.819290 468.233459,157.762482 
	C467.866821,157.614670 467.836914,157.215118 468.160706,156.998718 
	C468.783203,156.604126 468.977661,156.347061 469.067902,156.011108 
	C469.430511,156.372238 469.793152,156.733353 470.143250,157.365845 
z"/>
<path fill="#8E8CA0" opacity="1.000000" stroke="none" d="
M417.831604,283.884949 
	C417.063080,284.362610 416.162598,284.568787 415.149719,284.463562 
	C415.924774,283.972626 416.812225,283.793060 417.831604,283.884949 
z"/>
<path fill="#8E8CA0" opacity="1.000000" stroke="none" d="
M408.438782,182.842102 
	C407.996918,182.973038 407.593994,182.826035 407.085358,182.483475 
	C407.479004,182.379990 407.978394,182.472076 408.438782,182.842102 
z"/>
<path fill="#1B1035" opacity="1.000000" stroke="none" d="
M542.029175,183.675507 
	C542.466736,183.803009 542.904236,183.930527 543.891357,184.189178 
	C544.983887,184.357910 545.526855,184.395477 546.069824,184.433044 
	C548.754517,185.340668 551.439209,186.248306 554.487793,187.257355 
	C560.152832,191.713242 566.361877,195.338333 570.567627,200.572952 
	C579.530090,211.727982 583.498352,224.681152 580.033447,239.562286 
	C577.527649,240.037521 575.177612,240.118210 571.965698,240.193542 
	C561.711426,240.234238 552.318909,240.280273 542.668945,240.098938 
	C539.273376,239.827545 536.132263,239.674606 532.997864,239.762955 
	C527.123291,239.928589 521.252686,240.233917 515.067505,240.359985 
	C513.622253,240.238846 512.489929,240.238846 511.360046,240.238846 
	C511.203247,249.409103 516.139282,257.269379 523.402832,259.030090 
	C528.789795,260.947449 533.604309,260.371979 538.650391,258.073975 
	C540.437012,256.862640 542.504028,255.982788 543.191345,254.474319 
	C545.385864,249.658005 548.828308,247.527588 554.460510,248.216003 
	C560.902039,248.283340 566.906677,248.201309 573.150635,248.289062 
	C573.929382,248.332245 574.468811,248.205643 575.008301,248.079041 
	C575.418701,248.147949 575.829163,248.216858 576.686401,248.390305 
	C577.133240,248.494827 577.600037,248.601456 577.600037,248.601456 
	C577.600037,248.601456 578.045532,248.426025 578.045532,248.426025 
	C578.882019,256.359070 574.720581,262.512054 570.046814,267.950470 
	C562.499451,276.732666 553.029358,281.973511 541.143555,284.057983 
	C527.152954,286.511597 514.408447,284.453339 502.641876,277.327057 
	C489.687408,269.481354 483.152039,257.201904 481.834564,242.220779 
	C480.459900,226.589600 481.727539,211.517105 492.773315,199.042404 
	C499.089844,191.908722 506.627472,186.643463 516.873291,184.707413 
	C517.964844,184.244705 518.461121,184.081207 518.957397,183.917709 
	C520.354736,183.789963 521.752014,183.662201 523.831787,183.504272 
	C525.330566,183.293198 526.146851,183.112320 526.963135,182.931442 
	C527.425537,182.969727 527.887939,183.008026 529.000977,183.034882 
	C530.102539,182.932007 530.553528,182.840546 531.004517,182.749084 
	C532.408691,182.863861 533.812866,182.978607 535.957275,183.187286 
	C538.474792,183.412628 540.251953,183.544067 542.029175,183.675507 
M548.959412,220.273743 
	C547.727173,214.183136 544.226257,209.765732 538.188721,208.468643 
	C523.630676,205.340973 517.100586,208.920349 511.716339,222.434280 
	C511.309967,223.454239 512.194580,224.988541 513.275696,226.696030 
	C525.384216,226.696030 537.492737,226.696030 550.350098,226.696030 
	C549.686462,224.070801 549.301270,222.546829 548.959412,220.273743 
z"/>
<path fill="#8E8CA0" opacity="1.000000" stroke="none" d="
M526.839233,182.649841 
	C526.146851,183.112320 525.330566,183.293198 524.220886,183.341080 
	C523.965820,182.667831 524.004150,182.127563 524.064148,181.318512 
	C524.962280,181.489243 525.838806,181.928741 526.839233,182.649841 
z"/>
<path fill="#8E8CA0" opacity="1.000000" stroke="none" d="
M572.969849,246.912476 
	C573.447266,246.928375 573.924622,246.944290 574.762573,246.958801 
	C575.111206,247.145081 575.099243,247.332748 575.047791,247.799728 
	C574.468811,248.205643 573.929382,248.332245 573.125732,248.087738 
	C572.927612,247.452591 572.963684,247.184540 572.969849,246.912476 
z"/>
<path fill="#8E8CA0" opacity="1.000000" stroke="none" d="
M518.804688,183.714905 
	C518.461121,184.081207 517.964844,184.244705 517.217773,184.511108 
	C517.528564,184.246704 518.090210,183.879395 518.804688,183.714905 
z"/>
<path fill="#8E8CA0" opacity="1.000000" stroke="none" d="
M577.897217,248.240814 
	C578.045532,248.426025 577.600037,248.601456 577.600037,248.601456 
	C577.600037,248.601456 577.133240,248.494827 576.990356,248.302734 
	C577.135925,247.896240 577.436401,247.877884 577.897217,248.240814 
z"/>
<path fill="#8E8CA0" opacity="1.000000" stroke="none" d="
M541.930908,183.342224 
	C540.251953,183.544067 538.474792,183.412628 536.372681,183.093185 
	C537.976135,182.939758 539.904358,182.974350 541.930908,183.342224 
z"/>
<path fill="#8E8CA0" opacity="1.000000" stroke="none" d="
M546.017334,184.184448 
	C545.526855,184.395477 544.983887,184.357910 544.231445,184.131378 
	C544.669617,183.940231 545.317200,183.938034 546.017334,184.184448 
z"/>
<path fill="url(#iconGrad)" opacity="1.000000" stroke="none" d="
M60.950817,213.032745 
	C65.670456,207.465500 70.470612,202.258453 75.738342,197.222443 
	C77.424980,197.468567 78.866333,198.003967 79.825417,197.540771 
	C84.514389,195.276260 89.007759,192.599991 93.733429,190.423523 
	C94.759941,189.950775 96.557190,190.710587 97.824707,191.286972 
	C101.250191,192.844696 105.904144,202.581512 104.414406,205.869354 
	C102.298874,210.538284 100.154732,215.426865 96.916214,219.295120 
	C92.926460,224.060623 91.243919,228.907394 92.362183,235.189514 
	C88.641685,238.720215 84.992432,241.941299 81.343170,245.162384 
	C79.742043,245.251617 78.140915,245.340866 75.351059,245.496368 
	C76.690834,242.363632 77.670517,239.861725 78.818466,237.439560 
	C80.428490,234.042404 81.779060,230.430420 83.935204,227.405441 
	C87.194153,222.833267 84.977638,219.180862 82.673767,215.531204 
	C77.353798,207.103607 77.383614,207.344955 68.626503,211.990219 
	C66.533669,213.100403 64.241241,216.946564 60.950817,213.032745 
z"/>
<path fill="url(#iconGrad)" opacity="1.000000" stroke="none" d="
M51.181870,224.842697 
	C51.640415,223.580582 52.480656,222.324783 53.604698,220.896088 
	C53.113522,222.098465 52.338543,223.473755 51.181870,224.842697 
z"/>
<path fill="url(#iconGrad)" opacity="1.000000" stroke="none" d="
M54.868706,219.842743 
	C55.130268,219.003296 55.769684,218.165237 56.694244,217.191742 
	C56.401775,217.985596 55.824165,218.914871 54.868706,219.842743 
z"/>
<path fill="url(#iconGrad)" opacity="1.000000" stroke="none" d="
M57.262520,216.825531 
	C57.195026,216.663162 57.341366,216.362595 57.706535,215.925186 
	C57.775696,216.087997 57.626022,216.387665 57.262520,216.825531 
z"/>
<path fill="url(#iconGrad)" opacity="1.000000" stroke="none" d="
M250.749130,340.940002 
	C247.420227,344.560150 244.091324,348.180298 240.458771,351.926727 
	C238.563766,352.743011 236.637680,353.074158 235.442688,354.188995 
	C231.571518,357.800507 228.026657,361.759338 224.227264,365.451813 
	C223.074570,366.572052 221.504013,367.262390 220.124863,368.149628 
	C219.714188,367.841278 219.303528,367.532898 218.892853,367.224518 
	C219.461700,365.498749 219.770950,363.625610 220.650650,362.076324 
	C222.833069,358.232666 225.679001,354.719940 227.492615,350.726471 
	C229.073257,347.245972 230.074493,343.340179 230.482162,339.531372 
	C230.958145,335.084290 225.984711,332.452423 221.350815,334.306091 
	C215.044205,336.828857 213.856567,336.267792 212.822906,329.878723 
	C213.378586,328.741760 213.996078,328.032532 215.165344,327.125610 
	C216.486954,325.780945 217.256805,324.633942 218.189865,323.287231 
	C218.512817,323.023926 218.672577,322.960327 219.092911,322.831055 
	C219.545944,322.475952 219.738403,322.186523 220.081512,321.601624 
	C222.917343,318.283417 225.602524,315.260681 228.287689,312.237976 
	C228.287689,312.237976 228.104767,312.138763 228.474670,312.116272 
	C229.513229,311.597137 230.181900,311.100464 230.918762,310.984283 
	C232.081818,316.079346 234.531281,315.051361 237.463821,313.029877 
	C242.615158,309.478882 247.757477,305.883759 253.162338,302.753998 
	C254.464767,301.999786 257.229187,302.399750 258.499451,303.358154 
	C259.694885,304.260101 260.739288,306.965668 260.237427,308.245148 
	C257.613770,314.934418 254.592789,321.478058 251.477448,327.960602 
	C249.381058,332.322876 246.898788,336.499756 244.137543,341.592468 
	C247.245728,341.285736 248.997437,341.112885 250.749130,340.940002 
z"/>
<path fill="url(#iconGrad)" opacity="1.000000" stroke="none" d="
M88.024651,287.488831 
	C88.415794,287.118469 88.866760,287.107147 89.657623,287.075836 
	C90.780769,287.400543 91.564011,287.745270 92.908745,288.268280 
	C94.312218,288.523651 95.154182,288.600708 95.996155,288.677795 
	C97.387573,288.830505 98.778992,288.983246 100.938850,289.239319 
	C105.144089,289.235260 108.580879,289.127808 112.408371,289.125977 
	C113.864456,289.143280 114.929840,289.054962 115.995216,288.966644 
	C131.683716,289.055237 147.372208,289.143829 163.539154,289.417389 
	C164.004303,289.792084 163.991028,289.981812 164.016815,290.440552 
	C164.042068,290.890259 164.028244,291.070984 164.014435,291.251648 
	C156.319748,291.493958 148.625061,291.736237 140.462433,291.985107 
	C129.976654,291.993896 119.958809,291.996063 109.472855,292.003387 
	C103.791771,291.629608 98.547043,291.476776 93.382622,290.751862 
	C91.517448,290.489990 89.844910,288.855804 88.024651,287.488831 
z"/>
<path fill="url(#iconGrad)" opacity="1.000000" stroke="none" d="
M88.755623,325.667603 
	C88.559029,325.846924 88.129539,325.816925 87.500320,325.522736 
	C87.707970,325.325134 88.115349,325.391663 88.755623,325.667603 
z"/>
<path fill="url(#iconGrad)" opacity="1.000000" stroke="none" d="
M85.205994,286.245239 
	C85.405197,286.061859 85.821022,286.110077 86.442978,286.416992 
	C86.240273,286.609406 85.831451,286.543121 85.205994,286.245239 
z"/>
<path fill="url(#iconGrad)" opacity="1.000000" stroke="none" d="
M164.010956,291.625183 
	C164.028244,291.070984 164.042068,290.890259 164.441681,290.340393 
	C166.566879,290.030212 168.306305,290.089172 170.178040,290.361389 
	C170.858093,290.436615 171.405838,290.298553 172.342926,290.083923 
	C174.784012,290.121826 176.835739,290.236328 179.062744,290.736145 
	C181.459763,291.425781 183.681534,291.730103 186.152832,292.235962 
	C187.647400,293.841919 188.892426,295.246399 190.110687,297.052490 
	C191.227676,301.647003 192.281082,305.867279 193.544403,310.023773 
	C194.512741,313.209686 193.771912,315.503693 190.817841,317.171967 
	C190.102356,317.576019 189.728607,318.585236 188.325439,320.517120 
	C191.796890,320.828156 194.243820,321.266388 196.679077,321.209015 
	C199.587891,321.140442 202.519806,320.586639 203.019867,324.705902 
	C197.315292,324.846069 191.610733,324.986237 185.438324,325.061798 
	C179.073441,324.950745 173.176422,324.904327 167.114471,325.195526 
	C165.883438,325.577820 164.817322,325.622437 163.374542,325.526245 
	C162.537140,319.997681 165.404465,317.768372 170.344833,316.518372 
	C172.196777,316.049744 174.663712,313.273315 174.726746,311.474670 
	C174.852036,307.899597 177.774261,303.669800 172.366074,300.587463 
	C169.069885,298.708801 163.784866,297.710358 164.010956,291.625183 
z"/>
<path fill="url(#iconGrad)" opacity="1.000000" stroke="none" d="
M152.898300,325.657471 
	C152.829697,325.851074 152.666367,325.908020 152.255707,325.887299 
	C152.188309,325.449219 152.453369,325.352966 152.898300,325.657471 
z"/>
<path fill="url(#iconGrad)" opacity="1.000000" stroke="none" d="
M117.028015,210.406006 
	C109.003578,218.686920 101.048981,226.671341 92.763901,234.767822 
	C91.243919,228.907394 92.926460,224.060623 96.916214,219.295120 
	C100.154732,215.426865 102.298874,210.538284 104.414406,205.869354 
	C105.904144,202.581512 101.250191,192.844696 97.824707,191.286972 
	C96.557190,190.710587 94.759941,189.950775 93.733429,190.423523 
	C89.007759,192.599991 84.514389,195.276260 79.825417,197.540771 
	C78.866333,198.003967 77.424980,197.468567 76.050827,197.087219 
	C75.913399,196.461166 76.058067,196.216370 76.805389,195.890228 
	C77.499802,195.439041 77.718544,195.144241 77.937286,194.849457 
	C77.937286,194.849457 77.947533,194.947037 78.153519,194.819305 
	C78.545708,194.371552 78.731911,194.051529 78.918106,193.731506 
	C82.986618,189.498825 87.055122,185.266144 91.307465,180.759811 
	C95.632629,176.672501 99.773956,172.858841 104.203629,168.913269 
	C108.099113,170.996368 111.501328,170.792694 115.132278,168.508331 
	C119.600723,165.697067 124.403740,166.593918 128.003799,169.780396 
	C131.743576,173.090576 130.534760,177.742416 128.579422,181.719101 
	C125.290909,188.407166 121.708603,194.951508 118.210075,201.535156 
	C117.079964,203.661819 116.327568,205.587585 119.775299,206.750916 
	C119.035469,208.039795 118.066666,209.074661 117.028015,210.406006 
z"/>
<path fill="url(#iconGrad)" opacity="1.000000" stroke="none" d="
M77.663345,194.928986 
	C77.718544,195.144241 77.499802,195.439041 77.017258,195.829407 
	C76.965439,195.619492 77.177429,195.313995 77.663345,194.928986 
z"/>
<path fill="url(#iconGrad)" opacity="1.000000" stroke="none" d="
M78.655098,193.847122 
	C78.731911,194.051529 78.545708,194.371552 78.104530,194.816711 
	C78.030403,194.615479 78.211250,194.289108 78.655098,193.847122 
z"/>
<path fill="url(#iconGrad)" opacity="1.000000" stroke="none" d="
M155.498337,120.796318 
	C155.562347,121.040092 155.359375,121.354218 154.863846,121.698143 
	C154.791306,121.440849 155.011337,121.153755 155.498337,120.796318 
z"/>
<path fill="url(#iconGrad)" opacity="1.000000" stroke="none" d="
M203.438095,324.807007 
	C202.519806,320.586639 199.587891,321.140442 196.679077,321.209015 
	C194.243820,321.266388 191.796890,320.828156 188.325439,320.517120 
	C189.728607,318.585236 190.102356,317.576019 190.817841,317.171967 
	C193.771912,315.503693 194.512741,313.209686 193.544403,310.023773 
	C192.281082,305.867279 191.227676,301.647003 190.410736,297.218567 
	C197.918777,304.206482 205.100006,311.429993 212.226105,319.039673 
	C212.139206,319.945129 212.107437,320.464386 211.707840,320.997040 
	C210.554901,322.207703 209.769791,323.404938 208.984680,324.602173 
	C207.275223,324.704163 205.565781,324.806152 203.438095,324.807007 
z"/>
<path fill="url(#iconGrad)" opacity="1.000000" stroke="none" d="
M212.075668,320.983612 
	C212.107437,320.464386 212.139206,319.945129 212.543701,319.157349 
	C214.619843,320.421539 216.323257,321.954254 218.026672,323.486938 
	C217.256805,324.633942 216.486954,325.780945 215.396301,326.953369 
	C213.664658,326.294403 212.253845,325.609985 210.650482,324.585938 
	C210.997162,323.158722 211.536407,322.071167 212.075668,320.983612 
z"/>
<path fill="url(#iconGrad)" opacity="1.000000" stroke="none" d="
M211.707840,320.997040 
	C211.536407,322.071167 210.997162,323.158722 210.263092,324.468140 
	C209.883438,324.727875 209.698608,324.765747 209.249207,324.702911 
	C209.769791,323.404938 210.554901,322.207703 211.707840,320.997040 
z"/>
<path fill="url(#iconGrad)" opacity="1.000000" stroke="none" d="
M251.056671,340.803711 
	C248.997437,341.112885 247.245728,341.285736 244.137543,341.592468 
	C246.898788,336.499756 249.381058,332.322876 251.477448,327.960602 
	C254.592789,321.478058 257.613770,314.934418 260.237427,308.245148 
	C260.739288,306.965668 259.694885,304.260101 258.499451,303.358154 
	C257.229187,302.399750 254.464767,301.999786 253.162338,302.753998 
	C247.757477,305.883759 242.615158,309.478882 237.463821,313.029877 
	C234.531281,315.051361 232.081818,316.079346 231.037903,310.686584 
	C233.727768,307.345276 236.366714,304.682190 239.212372,301.907715 
	C239.681717,301.605927 239.858688,301.355072 240.062531,300.747131 
	C241.101471,299.608185 242.027863,298.765961 243.171417,297.843689 
	C243.663162,297.591675 243.846344,297.350250 243.941162,296.993347 
	C243.944199,296.947266 244.036041,296.937500 244.242249,296.840637 
	C244.704559,296.555054 244.867416,296.305450 244.937027,295.994965 
	C245.105621,295.704529 245.274200,295.414124 245.908096,294.927856 
	C246.649567,294.518799 246.813309,294.239594 246.889069,293.895355 
	C246.913452,293.896271 246.907822,293.944031 247.148605,293.815857 
	C247.560226,293.375061 247.731079,293.062408 247.867279,292.558167 
	C247.832642,292.366516 247.747757,291.986389 248.007446,291.748383 
	C249.182678,289.670715 250.098221,287.831055 251.195816,285.704041 
	C252.906296,282.951050 254.434692,280.485352 256.228638,277.766998 
	C256.607849,276.800537 256.721527,276.086792 256.738159,275.131653 
	C256.793549,274.588562 256.946014,274.286835 257.333984,273.751984 
	C257.674255,272.657257 257.779053,271.795654 257.854492,270.941589 
	C257.825165,270.949127 257.805054,270.891968 258.125122,270.713043 
	C260.778137,265.901581 259.775238,261.141754 255.894165,258.882507 
	C255.776077,258.777527 255.869461,258.475677 255.880264,258.114563 
	C255.507950,257.205078 255.124847,256.656708 254.791809,256.109039 
	C254.841873,256.109741 254.801636,256.201447 254.813812,255.848312 
	C254.365524,255.035721 253.905060,254.576263 253.271973,254.044098 
	C252.895401,253.781326 252.828903,253.551483 252.886734,252.934845 
	C252.223251,252.075775 251.572876,251.563751 250.663803,250.945862 
	C249.914795,250.291595 249.424469,249.743210 248.951904,248.777679 
	C249.076721,245.888138 248.436676,241.654449 249.416245,241.238922 
	C254.482361,239.089920 254.609009,235.546692 255.835358,230.736359 
	C257.589996,223.853668 255.704437,220.289307 250.619034,217.266663 
	C247.116241,215.184677 246.519836,213.027618 249.015427,209.911804 
	C249.761520,209.950012 250.507629,209.988235 251.687012,210.363617 
	C253.086166,210.782593 254.052032,210.864426 255.017883,210.946259 
	C257.804932,211.622360 260.591980,212.298462 263.770935,212.918747 
	C267.768402,214.985779 271.373932,217.108612 274.718933,219.587433 
	C271.785919,219.472488 269.113434,219.001587 265.195190,218.311188 
	C266.522247,220.753571 267.105316,222.398438 268.150909,223.659927 
	C275.954987,233.075455 281.545715,243.202011 283.716705,255.688675 
	C285.783112,267.573853 285.656036,279.012329 280.856628,289.703339 
	C276.421143,299.583710 270.026733,308.582825 264.529083,317.989929 
	C263.551208,319.663147 262.739471,321.433441 261.492523,323.855133 
	C264.890472,323.108887 266.998444,322.645966 269.106415,322.183044 
	C266.860901,324.660614 264.615387,327.138184 261.717407,329.795532 
	C260.465942,330.752625 259.866943,331.529968 259.267944,332.307312 
	C259.267975,332.307312 259.101837,332.113647 258.836395,332.145508 
	C257.691101,333.389862 256.811218,334.602356 255.931366,335.814819 
	C254.408981,337.432373 252.886581,339.049896 251.056671,340.803711 
z"/>
<path fill="url(#iconGrad)" opacity="1.000000" stroke="none" d="
M269.413849,322.042053 
	C266.998444,322.645966 264.890472,323.108887 261.492523,323.855133 
	C262.739471,321.433441 263.551208,319.663147 264.529083,317.989929 
	C270.026733,308.582825 276.421143,299.583710 280.856628,289.703339 
	C285.656036,279.012329 285.783112,267.573853 283.716705,255.688675 
	C281.545715,243.202011 275.954987,233.075455 268.150909,223.659927 
	C267.105316,222.398438 266.522247,220.753571 265.195190,218.311188 
	C269.113434,219.001587 271.785919,219.472488 274.877197,219.914856 
	C275.604004,219.822693 275.859528,219.911041 276.093475,220.737915 
	C277.844482,222.806870 279.564514,224.289291 281.284546,225.771713 
	C281.284546,225.771713 281.174255,225.811264 281.169128,226.070786 
	C281.805298,226.499237 282.446655,226.668167 283.087982,226.837097 
	C291.164886,234.939072 294.143097,245.489868 295.471863,256.175110 
	C296.459686,264.118652 295.011108,272.365143 294.070984,280.919800 
	C292.187225,283.330780 290.584747,285.178650 289.713348,287.323547 
	C289.346649,288.226166 290.524200,289.756165 290.999756,291.000946 
	C290.025482,293.171539 289.051208,295.342133 287.687195,297.881317 
	C287.127441,298.427521 287.030151,298.638672 287.005615,298.883301 
	C287.005615,298.883301 287.031464,299.004578 286.765015,299.154266 
	C286.251770,299.549622 286.126190,299.846558 286.121918,300.194794 
	C285.670807,301.143890 285.219696,302.092957 284.322083,302.953979 
	C281.445984,305.270782 278.922760,307.593414 276.671387,310.154907 
	C276.256805,310.626617 276.943542,312.066284 277.121948,313.059174 
	C274.655060,316.006470 272.188171,318.953766 269.413849,322.042053 
z"/>
<path fill="url(#iconGrad)" opacity="1.000000" stroke="none" d="
M277.419800,312.909180 
	C276.943542,312.066284 276.256805,310.626617 276.671387,310.154907 
	C278.922760,307.593414 281.445984,305.270782 284.067749,303.146484 
	C282.079163,306.537750 279.898407,309.648438 277.419800,312.909180 
z"/>
<path fill="url(#iconGrad)" opacity="1.000000" stroke="none" d="
M291.249878,290.743774 
	C290.524200,289.756165 289.346649,288.226166 289.713348,287.323547 
	C290.584747,285.178650 292.187225,283.330780 293.825317,281.220032 
	C293.270874,284.213654 292.385437,287.350159 291.249878,290.743774 
z"/>
<path fill="url(#iconGrad)" opacity="1.000000" stroke="none" d="
M281.237488,225.430618 
	C279.564514,224.289291 277.844482,222.806870 276.129333,220.946533 
	C277.819641,222.075592 279.505005,223.582565 281.237488,225.430618 
z"/>
<path fill="url(#iconGrad)" opacity="1.000000" stroke="none" d="
M256.227844,335.709961 
	C256.811218,334.602356 257.691101,333.389862 258.937531,332.223297 
	C258.377533,333.381195 257.450928,334.493164 256.227844,335.709961 
z"/>
<path fill="url(#iconGrad)" opacity="1.000000" stroke="none" d="
M259.553925,332.219513 
	C259.866943,331.529968 260.465942,330.752625 261.412964,329.947632 
	C261.120605,330.657227 260.480255,331.394470 259.553925,332.219513 
z"/>
<path fill="url(#iconGrad)" opacity="1.000000" stroke="none" d="
M282.979462,226.551392 
	C282.446655,226.668167 281.805298,226.499237 281.193604,226.017563 
	C281.772461,225.891769 282.321686,226.078720 282.979462,226.551392 
z"/>
<path fill="url(#iconGrad)" opacity="1.000000" stroke="none" d="
M287.189484,298.818329 
	C287.030151,298.638672 287.127441,298.427521 287.441467,298.146484 
	C287.672058,298.326874 287.601379,298.563629 287.189484,298.818329 
z"/>
<path fill="url(#iconGrad)" opacity="1.000000" stroke="none" d="
M286.348145,300.078094 
	C286.126190,299.846558 286.251770,299.549622 286.705078,299.170105 
	C286.799164,299.344604 286.686768,299.653015 286.348145,300.078094 
z"/>
<path fill="url(#iconGrad)" opacity="1.000000" stroke="none" d="
M168.990845,208.990829 
	C179.674561,208.653000 190.358261,208.315155 201.505829,208.340149 
	C201.145279,209.962021 200.320877,211.221069 199.497299,212.478790 
	C202.547684,216.966431 210.895248,216.780746 209.252426,225.762848 
	C207.669128,234.419464 199.367584,231.738144 194.397324,236.438370 
	C198.092957,237.466995 200.888199,238.136932 203.601776,239.049637 
	C204.808731,239.455612 205.851044,240.351151 206.503067,241.024704 
	C194.693527,240.678711 183.349030,240.332489 171.958206,239.648941 
	C171.047653,238.037872 170.183411,236.764130 169.117599,235.193298 
	C170.938126,234.374161 172.351685,233.504929 173.887924,233.089539 
	C179.031723,231.698715 179.139862,227.249405 179.881790,223.296677 
	C180.555969,219.704971 177.838989,218.329224 175.373825,216.436295 
	C172.836533,214.487915 171.085770,211.515274 168.990845,208.990829 
z"/>
<path fill="url(#iconGrad)" opacity="1.000000" stroke="none" d="
M168.526108,208.989166 
	C171.085770,211.515274 172.836533,214.487915 175.373825,216.436295 
	C177.838989,218.329224 180.555969,219.704971 179.881790,223.296677 
	C179.139862,227.249405 179.031723,231.698715 173.887924,233.089539 
	C172.351685,233.504929 170.938126,234.374161 169.117599,235.193298 
	C170.183411,236.764130 171.047653,238.037872 171.489105,239.656311 
	C162.655899,239.716202 154.245483,239.431412 145.835083,239.146606 
	C145.835083,239.146606 145.866318,239.042831 145.803009,238.840866 
	C145.458130,238.439590 145.176575,238.240280 144.895035,238.040970 
	C144.572693,237.943222 144.328262,237.747955 143.980270,237.004974 
	C143.602310,236.270615 143.335739,236.089691 142.999084,236.012024 
	C142.661621,235.934372 142.392960,235.754166 142.094635,235.244995 
	C141.992966,233.690903 142.055420,232.359116 141.972397,231.036453 
	C141.815735,228.540344 142.415878,227.215408 145.392838,226.802887 
	C147.583328,226.499344 149.900818,224.930023 151.407318,223.248764 
	C151.839600,222.766327 149.748322,219.865540 148.634644,218.193100 
	C147.111832,215.906296 145.417496,213.733719 142.882538,210.259216 
	C152.146133,209.791336 160.103745,209.389435 168.526108,208.989166 
z"/>
<path fill="url(#iconGrad)" opacity="1.000000" stroke="none" d="
M206.968094,241.024475 
	C205.851044,240.351151 204.808731,239.455612 203.601776,239.049637 
	C200.888199,238.136932 198.092957,237.466995 194.397324,236.438370 
	C199.367584,231.738144 207.669128,234.419464 209.252426,225.762848 
	C210.895248,216.780746 202.547684,216.966431 199.497299,212.478790 
	C200.320877,211.221069 201.145279,209.962021 201.972961,208.346466 
	C206.701035,207.676010 211.425827,207.362076 216.630829,207.417847 
	C220.281601,209.229462 223.657410,210.348648 226.567734,212.199707 
	C229.782379,214.244308 233.401489,216.444305 235.312805,219.526428 
	C237.262146,222.669922 234.333374,231.732971 231.484894,232.497131 
	C225.820419,234.016739 226.094620,237.600098 226.542755,241.894165 
	C222.450256,242.146683 218.810333,242.357681 214.765488,242.648392 
	C211.907211,242.603683 209.453827,242.479248 207.007721,242.021851 
	C206.999359,241.467407 206.983734,241.245941 206.968094,241.024475 
z"/>
<path fill="url(#iconGrad)" opacity="1.000000" stroke="none" d="
M226.995300,241.852646 
	C226.094620,237.600098 225.820419,234.016739 231.484894,232.497131 
	C234.333374,231.732971 237.262146,222.669922 235.312805,219.526428 
	C233.401489,216.444305 229.782379,214.244308 226.567734,212.199707 
	C223.657410,210.348648 220.281601,209.229462 217.056305,207.440857 
	C225.922104,207.383667 234.845474,207.611160 243.760544,208.020126 
	C245.357803,208.093399 246.920654,208.916504 248.757416,209.652618 
	C246.519836,213.027618 247.116241,215.184677 250.619034,217.266663 
	C255.704437,220.289307 257.589996,223.853668 255.835358,230.736359 
	C254.609009,235.546692 254.482361,239.089920 249.416245,241.238922 
	C248.436676,241.654449 249.076721,245.888138 248.588470,248.730759 
	C242.120880,247.041489 236.034485,244.981995 229.740692,242.672241 
	C228.687302,242.232193 227.841309,242.042419 226.995300,241.852646 
z"/>
<path fill="url(#iconGrad)" opacity="1.000000" stroke="none" d="
M254.798019,210.697327 
	C254.052032,210.864426 253.086166,210.782593 252.059433,210.392517 
	C252.858414,210.205658 253.718292,210.327026 254.798019,210.697327 
z"/>
<path fill="#8E8CA0" opacity="1.000000" stroke="none" d="
M851.063599,275.630096 
	C850.096436,275.828064 849.246765,275.666077 848.365112,275.040405 
	C848.228088,273.822906 848.123169,273.069061 848.018311,272.315247 
	C848.829651,270.848755 849.641052,269.382294 850.452454,267.915802 
	C850.839417,268.028564 851.226440,268.141327 851.613403,268.254089 
	C851.469299,270.592773 851.325195,272.931458 851.063599,275.630096 
z"/>
<path fill="#8E8CA0" opacity="1.000000" stroke="none" d="
M881.662109,190.135132 
	C881.954651,190.544434 882.107361,191.132980 882.046326,191.880951 
	C881.729187,191.465027 881.625732,190.889694 881.662109,190.135132 
z"/>
<path fill="#8E8CA0" opacity="1.000000" stroke="none" d="
M851.076904,279.807495 
	C850.818542,279.421997 850.684631,278.864105 850.760620,278.161163 
	C851.047546,278.555756 851.124451,279.095428 851.076904,279.807495 
z"/>
<path fill="#8E8CA0" opacity="1.000000" stroke="none" d="
M824.261597,183.114197 
	C824.652222,182.885284 825.266296,182.808334 825.966187,182.947693 
	C825.529724,183.198059 825.007324,183.232101 824.261597,183.114197 
z"/>
<path fill="#8E8CA0" opacity="1.000000" stroke="none" d="
M832.539917,184.749039 
	C832.708069,184.568054 833.121216,184.570251 833.760132,184.803558 
	C833.585571,185.000519 833.185242,184.966370 832.539917,184.749039 
z"/>
<path fill="#8E8CA0" opacity="1.000000" stroke="none" d="
M851.603210,282.857422 
	C851.310913,282.988220 851.086060,282.769501 851.018188,282.167419 
	C851.277588,282.114471 851.442749,282.355743 851.603210,282.857422 
z"/>
<path fill="#8E8CA0" opacity="1.000000" stroke="none" d="
M629.207397,244.565063 
	C628.791931,244.944992 628.357361,245.024307 627.591675,245.087006 
	C627.342957,244.330902 627.425415,243.591431 627.507812,242.851959 
	C628.067993,243.322784 628.628174,243.793625 629.207397,244.565063 
z"/>
<path fill="#8E8CA0" opacity="1.000000" stroke="none" d="
M627.123352,221.175812 
	C627.669800,220.939529 628.072815,220.998077 628.782959,221.057281 
	C628.649292,221.789001 628.208679,222.520020 627.767944,223.251038 
	C627.505310,222.657578 627.242676,222.064102 627.123352,221.175812 
z"/>
<path fill="#8E8CA0" opacity="1.000000" stroke="none" d="
M431.189575,369.322388 
	C431.958099,369.159210 432.936035,369.259735 433.955994,369.678528 
	C433.131683,369.859924 432.265289,369.722992 431.189575,369.322388 
z"/>
<path fill="#8E8CA0" opacity="1.000000" stroke="none" d="
M512.877380,226.489899 
	C519.136719,223.816147 525.951355,223.969238 532.885193,224.756409 
	C536.766418,225.197067 540.752563,225.278030 544.628906,224.892303 
	C545.989502,224.756912 547.163330,222.745224 548.669250,221.306580 
	C549.301270,222.546829 549.686462,224.070801 550.350098,226.696030 
	C537.492737,226.696030 525.384216,226.696030 512.877380,226.489899 
z"/>
<path fill="#8E8CA0" opacity="1.000000" stroke="none" d="
M542.668945,240.098938 
	C534.028259,240.516083 525.130005,240.705856 515.806152,240.688385 
	C521.252686,240.233917 527.123291,239.928589 532.997864,239.762955 
	C536.132263,239.674606 539.273376,239.827545 542.668945,240.098938 
z"/>
<path fill="url(#iconGrad)" opacity="1.000000" stroke="none" d="
M207.007721,242.021851 
	C198.323441,242.469482 189.646439,242.584152 180.146118,242.602997 
	C169.885361,242.465164 160.447922,242.423157 151.010468,242.381165 
	C150.309311,242.212051 149.608139,242.042923 148.417892,241.720352 
	C147.684708,241.362000 147.404953,241.282104 147.089539,241.327194 
	C147.089539,241.327194 146.784103,240.994507 146.569595,240.924744 
	C146.209122,240.483185 146.063171,240.111389 145.876160,239.443115 
	C154.245483,239.431412 162.655899,239.716202 171.535400,239.993622 
	C183.349030,240.332489 194.693527,240.678711 206.503067,241.024704 
	C206.983734,241.245941 206.999359,241.467407 207.007721,242.021851 
z"/>
<path fill="url(#iconGrad)" opacity="1.000000" stroke="none" d="
M183.762878,289.548798 
	C184.659225,290.181824 185.223877,290.799835 185.845901,291.726135 
	C183.681534,291.730103 181.459763,291.425781 179.168808,290.544189 
	C179.417984,289.677155 179.736359,289.387360 180.054733,289.097534 
	C181.180206,289.242981 182.305695,289.388397 183.762878,289.548798 
z"/>
<path fill="url(#iconGrad)" opacity="1.000000" stroke="none" d="
M170.178040,290.361389 
	C170.032883,289.968170 170.020065,289.788177 170.016785,289.337769 
	C170.466248,289.119385 170.906174,289.171417 171.667175,289.127319 
	C171.992828,289.219666 171.997406,289.408142 171.977783,289.878571 
	C171.405838,290.298553 170.858093,290.436615 170.178040,290.361389 
z"/>
<path fill="url(#iconGrad)" opacity="1.000000" stroke="none" d="
M246.864670,293.894440 
	C246.813309,294.239594 246.649567,294.518799 246.149353,294.835510 
	C245.925293,294.938995 245.904221,294.458130 245.884857,294.218323 
	C245.865509,293.978516 245.973206,293.968018 246.193451,293.918579 
	C246.413712,293.869141 246.864670,293.894440 246.864670,293.894440 
z"/>
<path fill="url(#iconGrad)" opacity="1.000000" stroke="none" d="
M244.242249,296.840637 
	C244.036041,296.937500 244.005981,296.485931 243.996750,296.260132 
	C243.987518,296.034363 244.462708,296.006500 244.699860,296.000732 
	C244.867416,296.305450 244.704559,296.555054 244.242249,296.840637 
z"/>
<path fill="url(#iconGrad)" opacity="1.000000" stroke="none" d="
M143.073517,236.254822 
	C143.335739,236.089691 143.602310,236.270615 143.895294,236.781296 
	C143.710510,236.837753 143.429230,236.667694 143.073517,236.254822 
z"/>
<path fill="url(#iconGrad)" opacity="1.000000" stroke="none" d="
M144.958603,238.304749 
	C145.176575,238.240280 145.458130,238.439590 145.815094,238.893677 
	C145.601074,238.955139 145.311615,238.761826 144.958603,238.304749 
z"/>
<path fill="url(#iconGrad)" opacity="1.000000" stroke="none" d="
M219.092896,322.831055 
	C219.025391,322.609070 219.218475,322.321411 219.671204,321.965424 
	C219.738403,322.186523 219.545944,322.475952 219.092896,322.831055 
z"/>
<path fill="url(#iconGrad)" opacity="1.000000" stroke="none" d="
M258.125122,270.713043 
	C257.205627,267.182434 256.606232,263.472870 256.009521,259.375397 
	C259.775238,261.141754 260.778137,265.901581 258.125122,270.713043 
z"/>
<path fill="url(#iconGrad)" opacity="1.000000" stroke="none" d="
M257.333984,273.751984 
	C257.206146,273.122955 257.313812,272.260803 257.652649,271.166351 
	C257.779053,271.795654 257.674255,272.657257 257.333984,273.751984 
z"/>
<path fill="url(#iconGrad)" opacity="1.000000" stroke="none" d="
M252.886734,252.934845 
	C252.292221,252.738434 251.684601,252.194977 250.999741,251.351624 
	C251.572876,251.563751 252.223251,252.075775 252.886734,252.934845 
z"/>
<path fill="url(#iconGrad)" opacity="1.000000" stroke="none" d="
M254.813828,255.848312 
	C254.393463,255.719803 253.985291,255.238159 253.510864,254.436676 
	C253.905060,254.576263 254.365524,255.035721 254.813828,255.848312 
z"/>
<path fill="url(#iconGrad)" opacity="1.000000" stroke="none" d="
M255.880249,258.114563 
	C255.509918,257.912323 255.150391,257.348969 254.766296,256.446960 
	C255.124847,256.656708 255.507950,257.205078 255.880249,258.114563 
z"/>
<path fill="url(#iconGrad)" opacity="1.000000" stroke="none" d="
M256.228638,277.766998 
	C256.078064,277.309326 256.193085,276.598999 256.571655,275.630829 
	C256.721527,276.086792 256.607849,276.800537 256.228638,277.766998 
z"/>
<path fill="url(#iconGrad)" opacity="1.000000" stroke="none" d="
M243.171417,297.843689 
	C242.969543,297.562500 243.138580,297.300507 243.699768,297.088593 
	C243.846344,297.350250 243.663162,297.591675 243.171417,297.843689 
z"/>
<path fill="url(#iconGrad)" opacity="1.000000" stroke="none" d="
M239.212372,301.907715 
	C239.159912,301.737366 239.314133,301.455627 239.709167,301.108826 
	C239.858688,301.355072 239.681717,301.605927 239.212372,301.907715 
z"/>
<path fill="url(#iconGrad)" opacity="1.000000" stroke="none" d="
M247.148621,293.815857 
	C247.068176,293.621094 247.228531,293.298157 247.645401,292.862488 
	C247.731079,293.062408 247.560226,293.375061 247.148621,293.815857 
z"/>
<path fill="url(#iconGrad)" opacity="1.000000" stroke="none" d="
M229.740692,242.672241 
	C225.304031,242.910995 220.659988,242.899475 215.593170,242.728302 
	C218.810333,242.357681 222.450256,242.146683 226.542755,241.894165 
	C227.841309,242.042419 228.687302,242.232193 229.740692,242.672241 
z"/>
</svg>