<svg id="a8a2e555-a4b6-4b9f-8a5c-b41e428fc026" data-name="Layer 1" xmlns="http://www.w3.org/2000/svg" viewBox="0 0 57 64"><path d="M14,27.19a16.56,16.56,0,0,1,4.55,2.65l.18-.2a14.14,14.14,0,0,0,2.78-5.12c.11-.36.2-.71.28-1.07l.12-.61a8.68,8.68,0,0,0,.16-.93,19.14,19.14,0,0,0,0-4.42,27.94,27.94,0,0,0-1-5,3.28,3.28,0,0,0-.35-.75,3.49,3.49,0,0,0-2-1.56,3.34,3.34,0,0,0-2,0,3.48,3.48,0,0,0-2.32,4.3c.1.32.18.63.26.93s.16.68.23,1,.1.49.14.74.07.44.1.66a12.47,12.47,0,0,1,0,3.73,9.62,9.62,0,0,1-.38,1.39,8.58,8.58,0,0,1-.54,1.15,7.37,7.37,0,0,1-.93,1.27,7.89,7.89,0,0,1-1,.93l-.25.19.92.34Z" style="fill:#f79421"/><path d="M5.39,22.73a4.25,4.25,0,1,0-4.25-4.25A4.25,4.25,0,0,0,5.39,22.73Z" style="fill:#f79421"/><path d="M14.5,40.42a7.73,7.73,0,0,1,.63,1.43,8.18,8.18,0,0,1,.31,1.32c0,.1,0,.21.05.31l.69-.57.89-.74a16,16,0,0,1,4.58-2.62l-.09-.26A13.66,13.66,0,0,0,20.48,37a14.23,14.23,0,0,0-2-2.64c-.25-.27-.51-.52-.78-.77l-.48-.42c-.28-.24-.49-.43-.72-.6a19.63,19.63,0,0,0-3.81-2.25A28.2,28.2,0,0,0,7.9,28.67a3.32,3.32,0,0,0-.75-.08,3.57,3.57,0,0,0-2.42.94,3.36,3.36,0,0,0-1,1.71,3.47,3.47,0,0,0,.42,2.61A3.51,3.51,0,0,0,6.29,35.4l.94.24,1,.31.71.25c.2.07.42.16.62.25a12.22,12.22,0,0,1,3.21,1.9,9.67,9.67,0,0,1,1,1A7.85,7.85,0,0,1,14.5,40.42Z" style="fill:#da205e"/><path d="M7.36,41.58a4.24,4.24,0,0,0-5.8,1.56,4.25,4.25,0,0,0,1.55,5.79,4.29,4.29,0,0,0,2.12.57,4.24,4.24,0,0,0,3.68-2.12,4.26,4.26,0,0,0-1.55-5.8Z" style="fill:#da205e"/><path d="M17.92,54a3.44,3.44,0,0,0,2.42-1.08c.23-.24.45-.47.68-.69s.5-.48.76-.7.38-.34.57-.49l.49-.39a12.12,12.12,0,0,1,3.29-1.85,8.4,8.4,0,0,1,1.39-.36,7.49,7.49,0,0,1,2.83,0,10,10,0,0,1,1.29.39l.3.12c-.06-.31-.11-.61-.16-.9L31.59,47a16.35,16.35,0,0,1,0-5.27l-.27-.06a14.26,14.26,0,0,0-5.82.15c-.36.08-.71.19-1.06.29l-.6.21c-.38.13-.63.21-.88.32a19.36,19.36,0,0,0-3.85,2.18,26.72,26.72,0,0,0-3.81,3.38,3.12,3.12,0,0,0-.48.68,3.44,3.44,0,0,0-.36,2.49,3.28,3.28,0,0,0,1,1.72,3.4,3.4,0,0,0,2.36.94Z" style="fill:#652f8f"/><path d="M28.34,54.53a4.25,4.25,0,0,0-3.67,6.37A4.27,4.27,0,0,0,28.36,63a4.13,4.13,0,0,0,2.11-.57,4.24,4.24,0,0,0-2.13-7.92Z" style="fill:#652f8f"/><path d="M43,36.81a16.56,16.56,0,0,1-4.55-2.65l-.18.2a14.25,14.25,0,0,0-1.48,2.11,14.41,14.41,0,0,0-1.3,3c-.11.35-.2.71-.28,1.07l-.12.62c-.08.39-.13.65-.16.92a19.72,19.72,0,0,0,0,4.42,27.32,27.32,0,0,0,1,5,3.15,3.15,0,0,0,.35.76,3.49,3.49,0,0,0,2,1.56,3.23,3.23,0,0,0,2,0,3.38,3.38,0,0,0,2.05-1.67,3.44,3.44,0,0,0,.28-2.63c-.1-.32-.18-.62-.26-.93s-.16-.68-.23-1-.1-.49-.14-.74-.07-.44-.1-.66a12.11,12.11,0,0,1,.06-3.73,8.24,8.24,0,0,1,.37-1.39,8,8,0,0,1,.54-1.15,7.37,7.37,0,0,1,.93-1.27,7.15,7.15,0,0,1,1-.92l.25-.2-.9-.34Z" style="fill:#e90c8b"/><path d="M51.61,41.28a4.25,4.25,0,1,0,4.25,4.24A4.24,4.24,0,0,0,51.61,41.28Z" style="fill:#e90c8b"/><path d="M49.93,35.4a3.47,3.47,0,0,0,2.34-.93,3.36,3.36,0,0,0,1-1.71,3.46,3.46,0,0,0-2.56-4.16l-.94-.24-1-.31-.71-.25-.62-.24a12.4,12.4,0,0,1-3.21-1.91,10.72,10.72,0,0,1-1-1,8.36,8.36,0,0,1-.72-1,6.73,6.73,0,0,1-.64-1.45,7.6,7.6,0,0,1-.31-1.31c0-.1,0-.21,0-.31l-.74.61-.86.71a16,16,0,0,1-4.57,2.61l.09.26A13.6,13.6,0,0,0,36.52,27a14.23,14.23,0,0,0,2,2.64c.25.27.51.52.78.77l.48.42c.28.24.49.43.72.6a19.93,19.93,0,0,0,3.81,2.25,27.91,27.91,0,0,0,4.83,1.61,3.32,3.32,0,0,0,.75.08Z" style="fill:#1b75bc"/><path d="M49.64,22.42a4.37,4.37,0,0,0,5.8-1.55,4.25,4.25,0,0,0-7.35-4.25,4.26,4.26,0,0,0,1.55,5.8Z" style="fill:#1b75bc"/><path d="M25.41,17a16.41,16.41,0,0,1,0,5.28l.26.05a14.33,14.33,0,0,0,5.83-.15c.36-.08.71-.18,1.06-.29l.6-.2c.36-.13.62-.22.88-.33a19.87,19.87,0,0,0,3.85-2.18,27.2,27.2,0,0,0,3.81-3.38,3.33,3.33,0,0,0,.49-.68,3.49,3.49,0,0,0,.35-2.49,3.33,3.33,0,0,0-1-1.72A3.45,3.45,0,0,0,39.18,10a3.5,3.5,0,0,0-2.52,1.08c-.22.24-.45.47-.67.68s-.52.49-.77.71-.38.34-.57.49-.35.28-.52.42a12.2,12.2,0,0,1-3.26,1.82,7.93,7.93,0,0,1-1.39.36,7.5,7.5,0,0,1-2.83-.05,7.92,7.92,0,0,1-1.29-.39l-.3-.12c.06.34.12.66.17,1Z" style="fill:#d7df28"/><path d="M30.77,8.9A4.25,4.25,0,1,0,25,7.35,4.36,4.36,0,0,0,30.77,8.9Z" style="fill:#d7df28"/></svg>